<svg xmlns="http://www.w3.org/2000/svg" xmlns:xlink="http://www.w3.org/1999/xlink" id="svg" width="400" height="400" viewBox="0, 0, 400,400"><g id="svgg"><path id="path0" d="M103.100 0.292 C 101.615 0.371,100.400 0.608,100.400 0.818 C 100.400 1.028,99.230 1.200,97.800 1.200 C 96.333 1.200,95.200 1.374,95.200 1.600 C 95.200 1.820,94.480 2.000,93.600 2.000 C 92.720 2.000,92.000 2.180,92.000 2.400 C 92.000 2.620,91.280 2.800,90.400 2.800 C 89.520 2.800,88.800 2.960,88.800 3.156 C 88.800 3.493,88.351 3.610,84.700 4.232 C 83.875 4.373,83.200 4.648,83.200 4.844 C 83.200 5.040,82.660 5.200,82.000 5.200 C 81.340 5.200,80.800 5.380,80.800 5.600 C 80.800 5.820,80.249 6.000,79.576 6.000 C 78.863 6.000,78.456 6.167,78.600 6.400 C 78.744 6.633,78.337 6.800,77.624 6.800 C 76.951 6.800,76.400 6.980,76.400 7.200 C 76.400 7.420,76.040 7.600,75.600 7.600 C 75.160 7.600,74.800 7.780,74.800 8.000 C 74.800 8.220,74.290 8.400,73.667 8.400 C 73.043 8.400,72.398 8.535,72.233 8.700 C 72.068 8.865,71.813 9.006,71.667 9.014 C 71.520 9.022,71.019 9.241,70.553 9.500 C 70.087 9.760,69.592 9.858,69.453 9.719 C 69.314 9.580,69.200 9.677,69.200 9.933 C 69.200 10.190,68.855 10.400,68.433 10.400 C 68.012 10.400,67.607 10.535,67.533 10.700 C 67.345 11.124,62.401 13.600,61.744 13.600 C 61.445 13.600,61.200 13.736,61.200 13.902 C 61.200 14.069,60.615 14.460,59.900 14.772 C 59.185 15.084,58.330 15.626,58.000 15.977 C 57.670 16.327,56.545 17.044,55.500 17.570 C 54.455 18.096,53.600 18.677,53.600 18.863 C 53.600 19.048,53.280 19.200,52.888 19.200 C 52.497 19.200,51.917 19.560,51.600 20.000 C 51.283 20.440,50.820 20.800,50.571 20.800 C 50.322 20.800,49.593 21.295,48.950 21.900 C 48.308 22.505,47.001 23.534,46.046 24.186 C 45.090 24.838,44.220 25.603,44.112 25.886 C 44.003 26.169,43.688 26.400,43.412 26.400 C 43.136 26.400,41.715 27.566,40.255 28.990 C 38.795 30.415,37.600 31.455,37.600 31.301 C 37.600 31.148,37.318 31.425,36.973 31.918 C 36.628 32.410,36.223 32.756,36.073 32.686 C 35.923 32.616,35.048 33.333,34.128 34.279 C 33.209 35.226,32.579 36.006,32.728 36.013 C 32.878 36.021,32.575 36.381,32.056 36.813 C 31.536 37.246,31.215 37.600,31.342 37.600 C 31.469 37.600,30.409 38.810,28.986 40.290 C 27.564 41.769,26.400 43.190,26.400 43.447 C 26.400 43.704,26.169 44.003,25.886 44.112 C 25.603 44.220,24.838 45.090,24.186 46.046 C 23.534 47.001,22.505 48.308,21.900 48.950 C 21.295 49.593,20.800 50.360,20.800 50.656 C 20.800 50.951,20.440 51.418,20.000 51.693 C 19.560 51.968,19.200 52.509,19.200 52.896 C 19.200 53.283,19.009 53.600,18.776 53.600 C 18.543 53.600,18.452 53.761,18.574 53.958 C 18.696 54.155,18.526 54.419,18.198 54.546 C 17.869 54.672,17.600 55.141,17.600 55.587 C 17.600 56.034,17.440 56.400,17.243 56.400 C 17.047 56.400,16.774 56.850,16.636 57.400 C 16.498 57.950,16.118 58.400,15.792 58.400 C 15.467 58.400,15.228 58.535,15.262 58.700 C 15.349 59.117,14.187 61.638,13.969 61.507 C 13.871 61.448,14.042 61.618,14.350 61.885 C 14.736 62.218,15.138 62.247,15.640 61.979 C 16.629 61.449,64.400 61.482,64.400 62.012 C 64.400 62.225,64.085 62.403,63.700 62.406 C 63.102 62.411,63.087 62.469,63.600 62.800 C 64.000 63.058,64.033 63.190,63.700 63.194 C 63.425 63.197,63.200 63.470,63.200 63.800 C 63.200 64.664,63.510 64.552,64.860 63.201 C 65.680 62.382,65.828 62.079,65.330 62.243 C 64.928 62.376,65.096 62.137,65.703 61.712 C 66.310 61.287,66.670 60.779,66.503 60.583 C 66.336 60.387,66.500 60.455,66.866 60.734 C 67.431 61.164,67.573 61.116,67.793 60.421 C 67.937 59.969,68.312 59.600,68.627 59.600 C 68.942 59.600,69.200 59.336,69.200 59.014 C 69.200 58.692,69.560 58.235,70.000 58.000 C 70.440 57.765,70.800 57.696,70.800 57.848 C 70.800 58.000,71.211 57.646,71.713 57.062 C 72.215 56.478,72.915 56.000,73.270 56.000 C 73.624 56.000,74.022 55.719,74.154 55.375 C 74.286 55.031,74.576 54.861,74.797 54.998 C 75.019 55.135,75.200 55.069,75.200 54.851 C 75.200 54.632,75.563 54.339,76.006 54.198 C 76.449 54.057,76.691 53.748,76.544 53.509 C 76.376 53.238,76.465 53.193,76.783 53.389 C 77.062 53.562,77.404 53.544,77.545 53.351 C 78.048 52.658,80.380 51.200,80.984 51.200 C 81.323 51.200,81.600 51.020,81.600 50.800 C 81.600 50.580,81.971 50.400,82.424 50.400 C 82.877 50.400,83.136 50.220,83.000 50.000 C 82.859 49.772,83.204 49.600,83.800 49.600 C 84.396 49.600,84.741 49.428,84.600 49.200 C 84.459 48.972,84.804 48.800,85.400 48.800 C 85.996 48.800,86.341 48.628,86.200 48.400 C 86.059 48.172,86.404 48.000,87.000 48.000 C 87.596 48.000,87.941 47.828,87.800 47.600 C 87.659 47.372,88.004 47.200,88.600 47.200 C 89.196 47.200,89.541 47.028,89.400 46.800 C 89.256 46.567,89.655 46.400,90.353 46.400 C 91.013 46.400,91.664 46.220,91.800 46.000 C 91.936 45.780,92.487 45.600,93.024 45.600 C 93.561 45.600,94.000 45.420,94.000 45.200 C 94.000 44.980,94.360 44.800,94.800 44.800 C 95.240 44.800,95.600 44.654,95.600 44.475 C 95.600 44.296,96.455 44.106,97.500 44.053 C 98.545 44.000,99.460 43.787,99.533 43.579 C 99.607 43.370,100.271 43.200,101.010 43.200 C 101.748 43.200,102.464 43.020,102.600 42.800 C 102.736 42.580,103.388 42.400,104.050 42.400 C 104.711 42.400,105.556 42.244,105.926 42.053 C 108.478 40.737,291.522 40.737,294.074 42.053 C 294.444 42.244,295.289 42.400,295.950 42.400 C 296.612 42.400,297.264 42.580,297.400 42.800 C 297.536 43.020,298.252 43.200,298.990 43.200 C 299.729 43.200,300.393 43.370,300.467 43.579 C 300.540 43.787,301.455 44.000,302.500 44.053 C 303.545 44.106,304.400 44.296,304.400 44.475 C 304.400 44.654,304.760 44.800,305.200 44.800 C 305.640 44.800,306.000 44.980,306.000 45.200 C 306.000 45.420,306.439 45.600,306.976 45.600 C 307.513 45.600,308.064 45.780,308.200 46.000 C 308.336 46.220,308.987 46.400,309.647 46.400 C 310.345 46.400,310.744 46.567,310.600 46.800 C 310.459 47.028,310.804 47.200,311.400 47.200 C 311.996 47.200,312.341 47.372,312.200 47.600 C 312.059 47.828,312.404 48.000,313.000 48.000 C 313.596 48.000,313.941 48.172,313.800 48.400 C 313.659 48.628,314.004 48.800,314.600 48.800 C 315.196 48.800,315.541 48.972,315.400 49.200 C 315.259 49.428,315.604 49.600,316.200 49.600 C 316.796 49.600,317.141 49.772,317.000 50.000 C 316.864 50.220,317.123 50.400,317.576 50.400 C 318.029 50.400,318.400 50.580,318.400 50.800 C 318.400 51.020,318.677 51.200,319.016 51.200 C 319.620 51.200,321.952 52.658,322.455 53.351 C 322.596 53.544,322.938 53.562,323.217 53.389 C 323.535 53.193,323.624 53.238,323.456 53.509 C 323.309 53.748,323.551 54.057,323.994 54.198 C 324.437 54.339,324.800 54.632,324.800 54.851 C 324.800 55.069,324.981 55.135,325.203 54.998 C 325.424 54.861,325.714 55.031,325.846 55.375 C 325.978 55.719,326.328 56.000,326.625 56.000 C 326.921 56.000,327.622 56.458,328.182 57.018 C 328.742 57.578,329.200 57.932,329.200 57.804 C 329.200 57.676,329.560 57.765,330.000 58.000 C 330.440 58.235,330.800 58.692,330.800 59.014 C 330.800 59.336,331.058 59.600,331.373 59.600 C 331.688 59.600,332.063 59.969,332.207 60.421 C 332.427 61.116,332.569 61.164,333.134 60.734 C 333.500 60.455,333.664 60.387,333.497 60.583 C 333.330 60.779,333.690 61.287,334.297 61.712 C 334.904 62.137,335.072 62.376,334.670 62.243 C 334.172 62.079,334.320 62.382,335.140 63.201 C 336.490 64.552,336.800 64.664,336.800 63.800 C 336.800 63.470,336.575 63.197,336.300 63.194 C 335.967 63.190,336.000 63.058,336.400 62.800 C 336.913 62.469,336.898 62.411,336.300 62.406 C 335.915 62.403,335.600 62.225,335.600 62.012 C 335.600 61.482,383.371 61.449,384.360 61.979 C 384.862 62.247,385.264 62.218,385.650 61.885 C 385.958 61.618,386.129 61.448,386.031 61.507 C 385.813 61.638,384.651 59.117,384.738 58.700 C 384.772 58.535,384.533 58.400,384.208 58.400 C 383.882 58.400,383.502 57.950,383.364 57.400 C 383.226 56.850,382.953 56.400,382.757 56.400 C 382.560 56.400,382.400 56.034,382.400 55.587 C 382.400 55.141,382.131 54.672,381.802 54.546 C 381.474 54.419,381.304 54.155,381.426 53.958 C 381.548 53.761,381.457 53.600,381.224 53.600 C 380.991 53.600,380.800 53.283,380.800 52.896 C 380.800 52.509,380.440 51.968,380.000 51.693 C 379.560 51.418,379.200 50.951,379.200 50.656 C 379.200 50.360,378.705 49.593,378.100 48.950 C 377.495 48.308,376.466 47.001,375.814 46.046 C 375.162 45.090,374.397 44.220,374.114 44.112 C 373.831 44.003,373.600 43.704,373.600 43.447 C 373.600 43.190,372.436 41.769,371.014 40.290 C 369.591 38.810,368.531 37.600,368.658 37.600 C 368.785 37.600,368.464 37.246,367.944 36.813 C 367.425 36.381,367.122 36.021,367.272 36.013 C 367.421 36.006,366.791 35.226,365.872 34.279 C 364.952 33.333,364.077 32.616,363.927 32.686 C 363.777 32.756,363.372 32.410,363.027 31.918 C 362.682 31.425,362.400 31.148,362.400 31.301 C 362.400 31.455,361.205 30.415,359.745 28.990 C 358.285 27.566,356.864 26.400,356.588 26.400 C 356.312 26.400,355.997 26.169,355.888 25.886 C 355.780 25.603,354.910 24.838,353.954 24.186 C 352.999 23.534,351.692 22.505,351.050 21.900 C 350.407 21.295,349.678 20.800,349.429 20.800 C 349.180 20.800,348.717 20.440,348.400 20.000 C 348.083 19.560,347.503 19.200,347.112 19.200 C 346.720 19.200,346.400 19.048,346.400 18.863 C 346.400 18.677,345.545 18.096,344.500 17.570 C 343.455 17.044,342.330 16.327,342.000 15.977 C 341.670 15.626,340.815 15.084,340.100 14.772 C 339.385 14.460,338.800 14.069,338.800 13.902 C 338.800 13.736,338.555 13.600,338.256 13.600 C 337.599 13.600,332.655 11.124,332.467 10.700 C 332.393 10.535,331.988 10.400,331.567 10.400 C 331.145 10.400,330.800 10.190,330.800 9.933 C 330.800 9.677,330.686 9.580,330.547 9.719 C 330.408 9.858,329.913 9.760,329.447 9.500 C 328.981 9.241,328.480 9.022,328.333 9.014 C 328.187 9.006,327.932 8.865,327.767 8.700 C 327.602 8.535,326.957 8.400,326.333 8.400 C 325.710 8.400,325.200 8.220,325.200 8.000 C 325.200 7.780,324.840 7.600,324.400 7.600 C 323.960 7.600,323.600 7.420,323.600 7.200 C 323.600 6.980,323.049 6.800,322.376 6.800 C 321.663 6.800,321.256 6.633,321.400 6.400 C 321.544 6.167,321.137 6.000,320.424 6.000 C 319.751 6.000,319.200 5.820,319.200 5.600 C 319.200 5.380,318.660 5.200,318.000 5.200 C 317.340 5.200,316.800 5.040,316.800 4.844 C 316.800 4.648,316.170 4.378,315.400 4.244 C 314.630 4.110,313.370 3.890,312.600 3.756 C 311.830 3.622,311.200 3.352,311.200 3.156 C 311.200 2.960,310.480 2.800,309.600 2.800 C 308.720 2.800,308.000 2.620,308.000 2.400 C 308.000 2.180,307.280 2.000,306.400 2.000 C 305.520 2.000,304.800 1.820,304.800 1.600 C 304.800 1.375,303.678 1.200,302.233 1.200 C 300.536 1.200,299.610 1.031,299.500 0.700 C 299.344 0.233,111.474 -0.158,103.100 0.292 " stroke="none" fill="#7e24b7" fill-rule="evenodd"></path><path id="path1" d="M60.800 332.583 C 60.800 332.743,61.160 333.331,61.600 333.891 C 62.040 334.450,62.400 334.777,62.400 334.617 C 62.400 334.457,62.040 333.869,61.600 333.309 C 61.160 332.750,60.800 332.423,60.800 332.583 M338.300 333.414 C 337.301 334.750,337.431 335.123,338.446 333.833 C 338.911 333.242,339.226 332.695,339.146 332.618 C 339.066 332.541,338.685 332.900,338.300 333.414 M66.000 338.400 C 66.550 338.830,67.159 339.186,67.354 339.191 C 67.549 339.196,67.250 338.840,66.691 338.400 C 66.131 337.960,65.522 337.604,65.337 337.609 C 65.152 337.614,65.450 337.970,66.000 338.400 M333.256 338.413 C 332.029 339.435,332.692 339.423,334.000 338.400 C 334.550 337.970,334.820 337.620,334.600 337.622 C 334.380 337.625,333.775 337.981,333.256 338.413 M14.876 339.473 C 14.306 339.701,15.361 341.200,16.091 341.200 C 16.292 341.200,16.173 340.915,15.825 340.568 C 15.477 340.220,15.295 339.770,15.420 339.568 C 15.668 339.167,15.648 339.164,14.876 339.473 M384.583 339.572 C 384.706 339.772,384.523 340.220,384.175 340.568 C 383.827 340.915,383.708 341.200,383.909 341.200 C 384.757 341.200,385.681 339.716,384.996 339.454 C 384.646 339.319,384.459 339.373,384.583 339.572 M17.600 342.389 C 17.600 342.615,17.780 342.800,18.000 342.800 C 18.220 342.800,18.400 342.974,18.400 343.187 C 18.400 343.401,18.142 343.476,17.826 343.355 C 17.369 343.179,17.316 343.366,17.564 344.267 C 17.744 344.920,18.136 345.380,18.488 345.353 C 18.871 345.323,19.100 345.645,19.100 346.214 C 19.100 346.713,19.393 347.540,19.750 348.050 C 20.108 348.560,20.400 348.835,20.400 348.660 C 20.400 348.486,20.670 348.613,21.000 348.943 C 21.330 349.273,21.600 349.734,21.600 349.968 C 21.600 350.374,23.541 353.149,25.213 355.134 C 25.646 355.648,26.000 356.196,26.000 356.353 C 26.000 356.510,27.252 357.913,28.782 359.470 C 30.312 361.028,31.480 362.386,31.378 362.489 C 31.275 362.591,32.571 364.055,34.258 365.742 C 35.945 367.429,37.410 368.723,37.514 368.619 C 37.618 368.515,38.830 369.556,40.206 370.932 C 41.582 372.308,43.357 373.876,44.151 374.417 C 44.945 374.958,45.596 375.535,45.597 375.700 C 45.599 375.865,45.832 376.000,46.114 376.000 C 46.397 376.000,47.432 376.715,48.414 377.589 C 49.397 378.462,50.425 379.182,50.700 379.189 C 50.975 379.195,51.200 379.350,51.200 379.532 C 51.200 379.715,51.695 380.120,52.300 380.432 C 52.905 380.745,53.749 381.315,54.175 381.700 C 54.602 382.085,55.187 382.400,55.475 382.400 C 55.764 382.400,56.000 382.580,56.000 382.800 C 56.000 383.020,56.320 383.200,56.712 383.200 C 57.103 383.200,57.676 383.550,57.985 383.979 C 58.293 384.407,58.673 384.679,58.828 384.583 C 58.983 384.487,59.332 384.677,59.604 385.004 C 59.876 385.332,60.346 385.600,60.649 385.600 C 60.952 385.600,61.200 385.780,61.200 386.000 C 61.200 386.220,61.560 386.400,62.000 386.400 C 62.440 386.400,62.800 386.580,62.800 386.800 C 62.800 387.020,63.160 387.200,63.600 387.200 C 64.040 387.200,64.400 387.380,64.400 387.600 C 64.400 387.820,64.760 388.000,65.200 388.000 C 65.640 388.000,66.000 388.180,66.000 388.400 C 66.000 388.620,66.360 388.800,66.800 388.800 C 67.240 388.800,67.600 388.980,67.600 389.200 C 67.600 389.420,67.836 389.600,68.125 389.600 C 68.414 389.600,69.583 390.050,70.723 390.600 C 71.863 391.150,73.247 391.600,73.798 391.600 C 74.349 391.600,74.800 391.780,74.800 392.000 C 74.800 392.220,75.261 392.400,75.824 392.400 C 76.404 392.400,76.740 392.573,76.600 392.800 C 76.460 393.026,76.788 393.200,77.353 393.200 C 77.903 393.200,78.464 393.380,78.600 393.600 C 78.736 393.820,79.276 394.000,79.800 394.000 C 80.324 394.000,80.864 394.180,81.000 394.400 C 81.136 394.620,81.687 394.800,82.224 394.800 C 82.761 394.800,83.200 394.980,83.200 395.200 C 83.200 395.420,83.729 395.600,84.376 395.600 C 85.023 395.600,85.664 395.780,85.800 396.000 C 85.936 396.220,86.667 396.400,87.424 396.400 C 88.181 396.400,88.800 396.580,88.800 396.800 C 88.800 397.020,89.509 397.200,90.376 397.200 C 91.243 397.200,92.064 397.380,92.200 397.600 C 92.336 397.820,93.067 398.000,93.824 398.000 C 94.581 398.000,95.200 398.180,95.200 398.400 C 95.200 398.625,96.322 398.800,97.767 398.800 C 99.464 398.800,100.390 398.969,100.500 399.300 C 100.745 400.036,299.255 400.036,299.500 399.300 C 299.610 398.969,300.536 398.800,302.233 398.800 C 303.678 398.800,304.800 398.625,304.800 398.400 C 304.800 398.180,305.419 398.000,306.176 398.000 C 306.933 398.000,307.664 397.820,307.800 397.600 C 307.936 397.380,308.757 397.200,309.624 397.200 C 310.491 397.200,311.200 397.020,311.200 396.800 C 311.200 396.580,311.819 396.400,312.576 396.400 C 313.333 396.400,314.064 396.220,314.200 396.000 C 314.336 395.780,314.977 395.600,315.624 395.600 C 316.271 395.600,316.800 395.420,316.800 395.200 C 316.800 394.980,317.239 394.800,317.776 394.800 C 318.313 394.800,318.864 394.620,319.000 394.400 C 319.136 394.180,319.676 394.000,320.200 394.000 C 320.724 394.000,321.264 393.820,321.400 393.600 C 321.536 393.380,322.097 393.200,322.647 393.200 C 323.212 393.200,323.540 393.026,323.400 392.800 C 323.260 392.573,323.596 392.400,324.176 392.400 C 324.739 392.400,325.200 392.220,325.200 392.000 C 325.200 391.780,325.651 391.600,326.202 391.600 C 326.753 391.600,328.137 391.150,329.277 390.600 C 330.417 390.050,331.586 389.600,331.875 389.600 C 332.164 389.600,332.400 389.420,332.400 389.200 C 332.400 388.980,332.760 388.800,333.200 388.800 C 333.640 388.800,334.000 388.620,334.000 388.400 C 334.000 388.180,334.360 388.000,334.800 388.000 C 335.240 388.000,335.600 387.820,335.600 387.600 C 335.600 387.380,335.960 387.200,336.400 387.200 C 336.840 387.200,337.200 387.020,337.200 386.800 C 337.200 386.580,337.560 386.400,338.000 386.400 C 338.440 386.400,338.800 386.220,338.800 386.000 C 338.800 385.780,339.048 385.600,339.351 385.600 C 339.654 385.600,340.124 385.332,340.396 385.004 C 340.668 384.677,341.017 384.487,341.172 384.583 C 341.327 384.679,341.707 384.407,342.015 383.979 C 342.324 383.550,342.897 383.200,343.288 383.200 C 343.680 383.200,344.000 383.020,344.000 382.800 C 344.000 382.580,344.236 382.400,344.525 382.400 C 344.813 382.400,345.398 382.085,345.825 381.700 C 346.251 381.315,347.095 380.745,347.700 380.432 C 348.305 380.120,348.800 379.715,348.800 379.532 C 348.800 379.350,349.025 379.195,349.300 379.189 C 349.575 379.182,350.603 378.462,351.586 377.589 C 352.568 376.715,353.603 376.000,353.886 376.000 C 354.168 376.000,354.401 375.865,354.403 375.700 C 354.404 375.535,355.055 374.958,355.849 374.417 C 356.643 373.876,358.418 372.308,359.794 370.932 C 361.170 369.556,362.382 368.515,362.486 368.619 C 362.590 368.723,364.055 367.429,365.742 365.742 C 367.429 364.055,368.725 362.591,368.622 362.489 C 368.520 362.386,369.688 361.028,371.218 359.470 C 372.748 357.913,374.000 356.510,374.000 356.353 C 374.000 356.196,374.354 355.648,374.787 355.134 C 376.459 353.149,378.400 350.374,378.400 349.968 C 378.400 349.734,378.670 349.273,379.000 348.943 C 379.330 348.613,379.600 348.486,379.600 348.660 C 379.600 348.835,379.893 348.560,380.250 348.050 C 380.608 347.540,380.900 346.713,380.900 346.214 C 380.900 345.645,381.129 345.323,381.512 345.353 C 381.864 345.380,382.256 344.920,382.436 344.267 C 382.684 343.366,382.631 343.179,382.174 343.355 C 381.858 343.476,381.600 343.401,381.600 343.187 C 381.600 342.974,381.780 342.800,382.000 342.800 C 382.220 342.800,382.400 342.615,382.400 342.389 C 382.400 342.112,374.003 341.989,356.600 342.012 C 342.410 342.030,330.800 342.198,330.800 342.385 C 330.800 342.810,327.347 344.014,327.032 343.698 C 326.904 343.571,326.797 343.812,326.794 344.233 C 326.789 344.875,326.724 344.902,326.400 344.400 C 326.051 343.860,325.828 344.110,325.953 344.900 C 325.979 345.065,325.787 345.200,325.526 345.200 C 325.265 345.200,324.606 345.605,324.061 346.100 C 323.517 346.595,323.199 346.777,323.356 346.505 C 323.548 346.171,323.439 346.087,323.021 346.247 C 322.679 346.378,322.400 346.646,322.400 346.843 C 322.400 347.039,322.040 347.200,321.600 347.200 C 321.142 347.200,320.800 347.467,320.800 347.824 C 320.800 348.167,320.620 348.336,320.400 348.200 C 320.180 348.064,320.000 348.143,320.000 348.376 C 320.000 348.609,319.640 348.800,319.200 348.800 C 318.760 348.800,318.400 348.936,318.400 349.101 C 318.400 349.267,317.054 350.032,315.408 350.801 C 313.763 351.571,312.413 352.335,312.408 352.500 C 312.404 352.665,311.860 352.800,311.200 352.800 C 310.540 352.800,310.000 352.980,310.000 353.200 C 310.000 353.420,309.640 353.600,309.200 353.600 C 308.760 353.600,308.400 353.780,308.400 354.000 C 308.400 354.220,307.961 354.400,307.424 354.400 C 306.887 354.400,306.336 354.580,306.200 354.800 C 306.064 355.020,305.503 355.200,304.953 355.200 C 304.388 355.200,304.060 355.374,304.200 355.600 C 304.352 355.847,303.671 356.000,302.424 356.000 C 301.311 356.000,300.400 356.180,300.400 356.400 C 300.400 356.620,299.849 356.800,299.176 356.800 C 298.503 356.800,298.047 356.952,298.162 357.139 C 298.277 357.325,297.343 357.511,296.086 357.551 C 294.829 357.591,293.740 357.799,293.667 358.012 C 293.593 358.225,292.389 358.400,290.990 358.400 C 289.592 358.400,288.339 358.575,288.207 358.789 C 288.052 359.040,256.587 359.178,200.000 359.178 C 143.413 359.178,111.948 359.040,111.793 358.789 C 111.661 358.575,110.408 358.400,109.010 358.400 C 107.611 358.400,106.407 358.225,106.333 358.012 C 106.260 357.799,105.171 357.591,103.914 357.551 C 102.657 357.511,101.723 357.325,101.838 357.139 C 101.953 356.952,101.497 356.800,100.824 356.800 C 100.151 356.800,99.600 356.620,99.600 356.400 C 99.600 356.180,98.689 356.000,97.576 356.000 C 96.329 356.000,95.648 355.847,95.800 355.600 C 95.940 355.374,95.612 355.200,95.047 355.200 C 94.497 355.200,93.936 355.020,93.800 354.800 C 93.664 354.580,93.113 354.400,92.576 354.400 C 92.039 354.400,91.600 354.220,91.600 354.000 C 91.600 353.780,91.240 353.600,90.800 353.600 C 90.360 353.600,90.000 353.420,90.000 353.200 C 90.000 352.980,89.460 352.800,88.800 352.800 C 88.140 352.800,87.596 352.665,87.592 352.500 C 87.587 352.335,86.237 351.571,84.592 350.801 C 82.946 350.032,81.600 349.267,81.600 349.101 C 81.600 348.936,81.240 348.800,80.800 348.800 C 80.360 348.800,80.000 348.609,80.000 348.376 C 80.000 348.143,79.820 348.064,79.600 348.200 C 79.380 348.336,79.200 348.167,79.200 347.824 C 79.200 347.467,78.858 347.200,78.400 347.200 C 77.960 347.200,77.600 347.039,77.600 346.843 C 77.600 346.646,77.321 346.378,76.979 346.247 C 76.561 346.087,76.452 346.171,76.644 346.505 C 76.801 346.777,76.483 346.595,75.939 346.100 C 75.394 345.605,74.724 345.200,74.451 345.200 C 74.177 345.200,74.056 345.032,74.183 344.828 C 74.309 344.623,74.230 344.342,74.007 344.204 C 73.783 344.066,73.600 344.138,73.600 344.364 C 73.600 344.590,73.315 344.665,72.966 344.532 C 72.521 344.361,72.471 344.203,72.799 344.001 C 73.061 343.839,72.562 343.600,71.661 343.456 C 70.779 343.315,69.797 342.940,69.480 342.623 C 68.759 341.902,17.600 341.671,17.600 342.389 M70.426 342.384 C 70.088 342.593,70.222 342.765,70.849 342.929 C 71.959 343.219,72.073 343.142,71.419 342.540 C 71.144 342.287,70.697 342.217,70.426 342.384 M328.482 342.650 C 327.921 343.251,328.182 343.308,329.371 342.842 C 329.966 342.608,330.011 342.490,329.569 342.320 C 329.254 342.199,328.765 342.348,328.482 342.650 " stroke="none" fill="#da8941" fill-rule="evenodd"></path><path id="path2" d="M104.628 158.445 C 104.779 158.689,104.654 159.043,104.351 159.230 C 104.048 159.417,103.758 160.072,103.707 160.685 C 103.551 162.542,103.480 162.773,103.133 162.559 C 102.950 162.445,102.800 162.633,102.800 162.976 C 102.800 163.319,102.609 163.600,102.375 163.600 C 102.141 163.600,102.006 163.933,102.075 164.339 C 102.187 165.001,101.872 165.895,100.753 168.095 C 100.559 168.477,100.400 169.342,100.400 170.018 C 100.400 170.694,100.257 171.159,100.083 171.051 C 99.909 170.944,99.739 171.248,99.707 171.728 C 99.645 172.646,98.963 175.168,98.358 176.719 C 98.161 177.224,98.000 178.339,98.000 179.195 C 98.000 180.052,97.851 180.845,97.669 180.957 C 97.487 181.070,97.296 182.201,97.245 183.472 C 97.194 184.743,97.000 185.877,96.815 185.991 C 95.721 186.669,95.706 211.801,96.797 214.200 C 96.998 214.640,97.248 215.900,97.354 217.000 C 97.461 218.100,97.747 219.990,97.990 221.200 C 98.234 222.410,98.536 223.985,98.660 224.700 C 98.785 225.415,99.048 226.000,99.244 226.000 C 99.440 226.000,99.600 226.705,99.600 227.567 C 99.600 228.428,99.774 229.193,99.987 229.267 C 100.200 229.340,100.420 229.999,100.475 230.730 C 100.530 231.462,100.715 232.148,100.887 232.254 C 101.059 232.360,101.200 232.797,101.200 233.224 C 101.200 233.651,101.336 234.000,101.503 234.000 C 101.828 234.000,102.800 236.816,102.800 237.760 C 102.800 238.075,102.975 238.393,103.188 238.467 C 103.402 238.540,103.645 238.960,103.728 239.400 C 103.974 240.699,104.471 241.746,105.258 242.624 C 105.664 243.077,106.035 243.919,106.083 244.495 C 106.131 245.071,106.314 245.453,106.491 245.344 C 106.668 245.234,106.691 244.932,106.542 244.672 C 106.387 244.401,106.426 244.342,106.636 244.533 C 106.836 244.717,107.000 245.077,107.000 245.333 C 107.000 245.682,113.167 245.851,131.300 246.000 C 147.415 246.133,155.551 246.065,155.454 245.800 C 155.374 245.580,155.477 245.071,155.684 244.670 C 156.017 244.024,155.964 243.991,155.230 244.384 C 154.323 244.870,154.336 244.885,154.283 243.300 C 154.258 242.581,153.718 241.692,152.723 240.731 C 151.885 239.924,151.200 239.091,151.200 238.881 C 151.200 238.671,150.525 237.774,149.700 236.887 C 147.930 234.985,147.200 233.845,147.200 232.982 C 147.200 232.636,147.020 232.464,146.800 232.600 C 146.580 232.736,146.400 232.477,146.400 232.024 C 146.400 231.571,146.220 231.200,146.000 231.200 C 145.780 231.200,145.600 230.930,145.600 230.600 C 145.600 230.270,145.420 230.000,145.200 230.000 C 144.980 230.000,144.800 229.640,144.800 229.200 C 144.800 228.760,144.620 228.400,144.400 228.400 C 144.180 228.400,144.000 228.130,144.000 227.800 C 144.000 227.470,143.853 227.200,143.672 227.200 C 143.492 227.200,143.100 226.300,142.800 225.200 C 142.500 224.100,142.108 223.200,141.928 223.200 C 141.747 223.200,141.600 222.840,141.600 222.400 C 141.600 221.960,141.459 221.600,141.287 221.600 C 141.115 221.600,140.934 221.105,140.884 220.500 C 140.834 219.895,140.614 219.340,140.394 219.266 C 140.175 219.192,140.090 218.978,140.206 218.790 C 140.322 218.602,140.053 217.091,139.609 215.432 C 139.164 213.772,138.800 211.950,138.800 211.381 C 138.800 210.813,138.613 209.998,138.384 209.571 C 137.851 208.575,137.804 191.323,138.332 190.671 C 138.542 190.412,138.807 189.390,138.921 188.400 C 139.150 186.415,139.586 184.525,140.584 181.200 C 140.947 179.990,141.341 178.550,141.460 178.000 C 141.579 177.450,142.200 175.949,142.838 174.666 C 143.477 173.382,144.000 172.077,144.000 171.766 C 144.000 171.454,144.180 171.200,144.400 171.200 C 144.620 171.200,144.800 170.930,144.800 170.600 C 144.800 170.270,144.980 170.000,145.200 170.000 C 145.420 170.000,145.600 169.706,145.600 169.347 C 145.600 168.988,145.988 168.358,146.461 167.947 C 147.019 167.464,147.128 167.200,146.772 167.200 C 146.469 167.200,146.802 166.670,147.511 166.023 C 148.220 165.375,148.800 164.565,148.800 164.223 C 148.800 163.880,148.937 163.600,149.104 163.600 C 149.271 163.600,149.644 163.221,149.933 162.758 C 150.318 162.142,150.327 161.998,149.968 162.220 C 149.643 162.421,149.579 162.358,149.779 162.035 C 149.945 161.766,150.315 161.635,150.601 161.745 C 151.112 161.941,151.714 160.647,151.303 160.236 C 151.187 160.120,141.015 160.017,128.698 160.007 C 116.381 159.996,106.145 159.890,105.952 159.770 C 105.758 159.651,105.597 159.788,105.594 160.076 C 105.589 160.464,105.491 160.448,105.217 160.013 C 104.988 159.652,104.989 159.254,105.219 158.977 C 105.605 158.512,105.338 158.000,104.710 158.000 C 104.513 158.000,104.476 158.200,104.628 158.445 M294.670 158.263 C 294.525 158.408,294.575 158.729,294.781 158.977 C 295.011 159.254,295.012 159.652,294.783 160.013 C 294.509 160.448,294.411 160.464,294.406 160.076 C 294.403 159.788,294.242 159.651,294.048 159.770 C 293.855 159.890,283.619 159.996,271.302 160.007 C 258.985 160.017,248.813 160.120,248.697 160.236 C 248.286 160.647,248.888 161.941,249.399 161.745 C 249.685 161.635,250.055 161.766,250.221 162.035 C 250.421 162.358,250.357 162.421,250.032 162.220 C 249.673 161.998,249.682 162.142,250.067 162.758 C 250.356 163.221,250.729 163.600,250.896 163.600 C 251.063 163.600,251.200 163.880,251.200 164.223 C 251.200 164.565,251.780 165.375,252.489 166.023 C 253.198 166.670,253.531 167.200,253.228 167.200 C 252.872 167.200,252.981 167.464,253.539 167.947 C 254.012 168.358,254.400 168.988,254.400 169.347 C 254.400 169.706,254.580 170.000,254.800 170.000 C 255.020 170.000,255.200 170.270,255.200 170.600 C 255.200 170.930,255.380 171.200,255.600 171.200 C 255.820 171.200,256.000 171.454,256.000 171.766 C 256.000 172.077,256.523 173.382,257.162 174.666 C 257.800 175.949,258.421 177.450,258.540 178.000 C 258.659 178.550,259.053 179.990,259.416 181.200 C 260.414 184.525,260.850 186.415,261.079 188.400 C 261.193 189.390,261.458 190.412,261.668 190.671 C 262.196 191.323,262.149 208.575,261.616 209.571 C 261.387 209.998,261.200 210.813,261.200 211.381 C 261.200 211.950,260.836 213.772,260.391 215.432 C 259.947 217.091,259.678 218.602,259.794 218.790 C 259.910 218.978,259.825 219.192,259.606 219.266 C 259.386 219.340,259.166 219.895,259.116 220.500 C 259.066 221.105,258.885 221.600,258.713 221.600 C 258.541 221.600,258.400 221.960,258.400 222.400 C 258.400 222.840,258.253 223.200,258.072 223.200 C 257.892 223.200,257.500 224.100,257.200 225.200 C 256.900 226.300,256.508 227.200,256.328 227.200 C 256.147 227.200,256.000 227.470,256.000 227.800 C 256.000 228.130,255.820 228.400,255.600 228.400 C 255.380 228.400,255.200 228.760,255.200 229.200 C 255.200 229.640,255.020 230.000,254.800 230.000 C 254.580 230.000,254.400 230.270,254.400 230.600 C 254.400 230.930,254.220 231.200,254.000 231.200 C 253.780 231.200,253.600 231.571,253.600 232.024 C 253.600 232.477,253.420 232.736,253.200 232.600 C 252.980 232.464,252.800 232.636,252.800 232.982 C 252.800 233.845,252.070 234.985,250.300 236.887 C 249.475 237.774,248.800 238.671,248.800 238.881 C 248.800 239.091,248.115 239.924,247.277 240.731 C 246.282 241.692,245.742 242.581,245.717 243.300 C 245.664 244.885,245.677 244.870,244.770 244.384 C 244.036 243.991,243.983 244.024,244.316 244.670 C 244.523 245.071,244.626 245.580,244.546 245.800 C 244.449 246.065,252.585 246.133,268.700 246.000 C 286.833 245.851,293.000 245.682,293.000 245.333 C 293.000 245.077,293.164 244.717,293.364 244.533 C 293.574 244.342,293.613 244.401,293.458 244.672 C 293.309 244.932,293.332 245.234,293.509 245.344 C 293.686 245.453,293.869 245.071,293.917 244.495 C 293.965 243.919,294.336 243.077,294.742 242.624 C 295.529 241.746,296.026 240.699,296.272 239.400 C 296.355 238.960,296.598 238.540,296.812 238.467 C 297.025 238.393,297.200 238.075,297.200 237.760 C 297.200 236.816,298.172 234.000,298.497 234.000 C 298.664 234.000,298.800 233.651,298.800 233.224 C 298.800 232.797,298.941 232.360,299.113 232.254 C 299.285 232.148,299.470 231.462,299.525 230.730 C 299.580 229.999,299.800 229.340,300.013 229.267 C 300.226 229.193,300.400 228.428,300.400 227.567 C 300.400 226.705,300.560 226.000,300.756 226.000 C 300.952 226.000,301.215 225.415,301.340 224.700 C 301.464 223.985,301.766 222.410,302.010 221.200 C 302.253 219.990,302.539 218.100,302.646 217.000 C 302.752 215.900,303.002 214.640,303.203 214.200 C 304.294 211.801,304.279 186.669,303.185 185.991 C 303.000 185.877,302.806 184.743,302.755 183.472 C 302.704 182.201,302.513 181.070,302.331 180.957 C 302.149 180.845,302.000 180.052,302.000 179.195 C 302.000 178.339,301.839 177.224,301.642 176.719 C 301.037 175.168,300.355 172.646,300.293 171.728 C 300.261 171.248,300.091 170.944,299.917 171.051 C 299.743 171.159,299.600 170.694,299.600 170.018 C 299.600 169.342,299.441 168.477,299.247 168.095 C 298.128 165.895,297.813 165.001,297.925 164.339 C 297.994 163.933,297.859 163.600,297.625 163.600 C 297.391 163.600,297.200 163.319,297.200 162.976 C 297.200 162.633,297.050 162.445,296.867 162.559 C 296.520 162.773,296.449 162.542,296.293 160.685 C 296.242 160.072,295.952 159.417,295.649 159.230 C 295.346 159.043,295.221 158.689,295.372 158.445 C 295.667 157.969,295.109 157.825,294.670 158.263 M40.400 159.500 C 40.400 160.159,39.212 160.194,20.200 160.093 L 0.000 159.986 0.000 202.993 L 0.000 246.000 19.800 246.000 L 39.600 246.000 39.654 244.900 C 39.708 243.822,39.713 243.820,39.888 244.800 C 40.655 249.076,40.800 242.394,40.800 202.680 C 40.800 178.546,40.710 158.800,40.600 158.800 C 40.490 158.800,40.400 159.115,40.400 159.500 M359.254 202.580 C 359.205 242.368,359.342 249.092,360.112 244.800 C 360.287 243.820,360.292 243.822,360.346 244.900 L 360.400 246.000 380.200 246.000 L 400.000 246.000 400.000 202.993 L 400.000 159.986 379.815 160.093 C 359.906 160.199,359.627 160.189,359.469 159.400 C 359.381 158.960,359.284 178.391,359.254 202.580 M155.817 245.173 C 155.690 245.378,156.129 245.867,156.793 246.259 C 157.457 246.652,158.003 247.249,158.006 247.586 C 158.012 248.129,158.057 248.130,158.400 247.600 C 158.906 246.817,158.906 246.287,158.400 246.600 C 158.180 246.736,158.000 246.567,158.000 246.224 C 158.000 245.881,157.865 245.621,157.700 245.647 C 156.796 245.790,155.985 245.548,156.200 245.200 C 156.336 244.980,156.357 244.800,156.247 244.800 C 156.137 244.800,155.943 244.968,155.817 245.173 M243.762 245.138 C 244.015 245.547,243.282 245.802,242.300 245.647 C 242.135 245.621,242.000 245.881,242.000 246.224 C 242.000 246.567,241.820 246.736,241.600 246.600 C 241.094 246.287,241.094 246.817,241.600 247.600 C 241.931 248.113,241.989 248.098,241.994 247.500 C 241.997 247.115,242.135 246.796,242.300 246.791 C 243.109 246.767,244.489 245.303,243.993 244.995 C 243.653 244.786,243.574 244.835,243.762 245.138 M107.600 248.133 C 107.600 248.427,107.853 248.667,108.162 248.667 C 108.471 248.667,108.632 248.427,108.519 248.133 C 108.407 247.840,108.154 247.600,107.957 247.600 C 107.761 247.600,107.600 247.840,107.600 248.133 M291.481 248.133 C 291.368 248.427,291.529 248.667,291.838 248.667 C 292.147 248.667,292.400 248.427,292.400 248.133 C 292.400 247.840,292.239 247.600,292.043 247.600 C 291.846 247.600,291.593 247.840,291.481 248.133 " stroke="none" fill="#c22e65" fill-rule="evenodd"></path><path id="path3" d="M0.006 132.793 L -0.010 159.986 20.195 160.093 C 40.142 160.199,40.401 160.190,40.496 159.400 C 40.549 158.960,40.691 172.460,40.811 189.400 C 40.980 213.240,41.026 207.839,41.015 165.500 C 41.007 135.415,41.100 110.800,41.222 110.800 C 41.614 110.800,41.613 107.821,41.221 107.211 C 40.897 106.706,40.805 106.721,40.579 107.311 C 40.334 107.950,38.894 108.000,20.781 108.000 C 0.337 108.000,0.454 108.010,0.735 106.300 C 0.798 105.915,0.664 105.600,0.436 105.600 C 0.154 105.600,0.016 114.298,0.006 132.793 M326.830 106.164 C 326.509 106.550,326.494 106.811,326.781 106.988 C 327.011 107.131,327.214 107.192,327.231 107.124 C 327.619 105.555,327.524 105.328,326.830 106.164 M399.265 106.300 C 399.546 108.010,399.663 108.000,379.219 108.000 C 361.106 108.000,359.666 107.950,359.421 107.311 C 359.195 106.721,359.103 106.706,358.779 107.211 C 358.387 107.821,358.386 110.800,358.778 110.800 C 358.900 110.800,358.993 135.415,358.985 165.500 C 358.974 207.839,359.020 213.240,359.189 189.400 C 359.309 172.460,359.451 158.960,359.504 159.400 C 359.599 160.190,359.858 160.199,379.805 160.093 L 400.010 159.986 399.994 132.793 C 399.984 114.298,399.846 105.600,399.564 105.600 C 399.336 105.600,399.202 105.915,399.265 106.300 M155.000 106.306 C 154.780 106.468,154.600 106.866,154.600 107.192 C 154.600 107.646,154.181 107.754,152.800 107.656 C 151.810 107.585,151.124 107.653,151.276 107.806 C 151.702 108.237,150.676 109.127,150.036 108.882 C 149.697 108.752,149.576 108.837,149.735 109.095 C 149.904 109.369,149.710 109.449,149.201 109.316 C 148.753 109.199,148.400 109.304,148.400 109.553 C 148.400 109.799,148.175 109.955,147.900 109.900 C 147.625 109.845,147.443 110.019,147.495 110.286 C 147.548 110.553,147.361 110.683,147.081 110.576 C 146.801 110.468,146.181 110.745,145.703 111.190 C 145.225 111.636,144.646 112.000,144.417 112.000 C 144.188 112.000,143.679 112.321,143.287 112.713 C 142.894 113.106,141.904 113.744,141.086 114.133 C 140.267 114.521,139.193 115.239,138.699 115.728 C 138.204 116.217,137.170 117.058,136.400 117.596 C 135.630 118.134,134.795 118.760,134.543 118.987 C 134.292 119.214,133.325 120.030,132.394 120.800 C 128.938 123.658,119.200 133.701,119.200 134.407 C 119.200 134.623,119.065 134.801,118.900 134.803 C 118.735 134.804,118.150 135.476,117.600 136.296 C 117.050 137.116,116.105 138.311,115.500 138.953 C 114.895 139.594,114.400 140.296,114.400 140.512 C 114.400 140.729,114.012 141.242,113.539 141.653 C 113.065 142.064,112.801 142.400,112.951 142.400 C 113.102 142.400,112.591 143.390,111.817 144.600 C 111.043 145.810,110.543 146.805,110.705 146.812 C 110.867 146.819,110.681 147.010,110.292 147.237 C 109.902 147.464,109.688 147.818,109.815 148.025 C 109.943 148.231,109.890 148.400,109.698 148.400 C 109.506 148.400,109.102 149.030,108.800 149.800 C 108.498 150.570,108.094 151.200,107.902 151.200 C 107.710 151.200,107.655 151.365,107.780 151.568 C 107.905 151.770,107.736 152.207,107.404 152.539 C 107.072 152.871,106.800 153.415,106.800 153.748 C 106.800 154.081,106.620 154.464,106.400 154.600 C 106.180 154.736,106.000 155.207,106.000 155.647 C 106.000 156.181,105.833 156.347,105.500 156.147 C 105.179 155.954,105.202 156.095,105.566 156.543 C 106.068 157.162,106.033 157.266,105.256 157.469 C 104.460 157.678,104.442 157.742,105.051 158.188 C 105.522 158.532,105.584 158.762,105.261 158.963 C 105.007 159.119,104.800 159.027,104.800 158.757 C 104.800 158.487,104.692 158.375,104.559 158.507 C 104.427 158.640,104.607 159.160,104.959 159.663 C 105.312 160.166,105.600 160.403,105.600 160.189 C 105.599 159.948,108.228 159.838,112.500 159.899 C 131.241 160.167,151.904 160.167,151.739 159.900 C 151.636 159.735,151.756 159.600,152.005 159.600 C 152.615 159.600,153.624 158.558,153.314 158.248 C 153.178 158.111,153.290 158.000,153.562 158.000 C 154.289 158.000,155.422 156.808,154.729 156.773 C 154.438 156.758,154.586 156.559,155.058 156.331 C 155.529 156.102,156.102 155.529,156.331 155.058 C 156.559 154.586,156.758 154.438,156.773 154.729 C 156.808 155.422,158.000 154.289,158.000 153.562 C 158.000 153.290,158.112 153.179,158.249 153.315 C 158.385 153.452,159.174 152.860,160.000 152.000 C 160.826 151.140,161.615 150.548,161.751 150.685 C 161.888 150.821,162.000 150.693,162.000 150.400 C 162.000 150.107,162.109 149.976,162.243 150.109 C 162.496 150.363,163.197 149.886,164.317 148.700 C 164.680 148.315,165.208 148.000,165.489 148.000 C 165.770 148.000,166.000 147.854,166.000 147.675 C 166.000 147.496,166.634 147.101,167.409 146.797 C 168.183 146.493,169.111 145.919,169.471 145.522 C 169.830 145.125,170.456 144.800,170.862 144.800 C 171.268 144.800,171.600 144.620,171.600 144.400 C 171.600 144.180,171.926 144.000,172.325 144.000 C 172.723 144.000,173.436 143.640,173.908 143.200 C 174.380 142.760,175.123 142.400,175.560 142.400 C 175.996 142.400,176.464 142.220,176.600 142.000 C 176.736 141.780,177.272 141.600,177.790 141.600 C 178.309 141.600,178.793 141.465,178.867 141.300 C 179.030 140.933,187.444 138.800,188.729 138.800 C 189.237 138.800,190.012 138.608,190.451 138.373 C 191.532 137.794,208.468 137.794,209.549 138.373 C 209.988 138.608,210.763 138.800,211.271 138.800 C 212.556 138.800,220.970 140.933,221.133 141.300 C 221.207 141.465,221.691 141.600,222.210 141.600 C 222.728 141.600,223.264 141.780,223.400 142.000 C 223.536 142.220,224.004 142.400,224.440 142.400 C 224.877 142.400,225.620 142.760,226.092 143.200 C 226.564 143.640,227.277 144.000,227.675 144.000 C 228.074 144.000,228.400 144.180,228.400 144.400 C 228.400 144.620,228.732 144.800,229.138 144.800 C 229.544 144.800,230.170 145.125,230.529 145.522 C 230.889 145.919,231.817 146.493,232.591 146.797 C 233.366 147.101,234.000 147.496,234.000 147.675 C 234.000 147.854,234.230 148.000,234.511 148.000 C 234.792 148.000,235.320 148.315,235.683 148.700 C 236.803 149.886,237.504 150.363,237.757 150.109 C 237.891 149.976,238.000 150.107,238.000 150.400 C 238.000 150.693,238.112 150.821,238.249 150.685 C 238.385 150.548,239.174 151.140,240.000 152.000 C 240.826 152.860,241.615 153.452,241.751 153.315 C 241.888 153.179,242.000 153.290,242.000 153.562 C 242.000 154.289,243.192 155.422,243.227 154.729 C 243.242 154.438,243.441 154.586,243.669 155.058 C 243.898 155.529,244.471 156.102,244.942 156.331 C 245.414 156.559,245.562 156.758,245.271 156.773 C 244.578 156.808,245.711 158.000,246.438 158.000 C 246.710 158.000,246.822 158.111,246.686 158.248 C 246.376 158.558,247.385 159.600,247.995 159.600 C 248.244 159.600,248.364 159.735,248.261 159.900 C 248.096 160.167,268.759 160.167,287.500 159.899 C 291.772 159.838,294.401 159.948,294.400 160.189 C 294.400 160.403,294.688 160.166,295.041 159.663 C 295.393 159.160,295.573 158.640,295.441 158.507 C 295.308 158.375,295.200 158.487,295.200 158.757 C 295.200 159.027,294.993 159.119,294.739 158.963 C 294.416 158.762,294.478 158.532,294.949 158.188 C 295.558 157.742,295.540 157.678,294.744 157.469 C 293.967 157.266,293.932 157.162,294.434 156.543 C 294.798 156.095,294.821 155.954,294.500 156.147 C 294.167 156.347,294.000 156.181,294.000 155.647 C 294.000 155.207,293.820 154.736,293.600 154.600 C 293.380 154.464,293.200 154.081,293.200 153.748 C 293.200 153.415,292.928 152.871,292.596 152.539 C 292.264 152.207,292.095 151.770,292.220 151.568 C 292.345 151.365,292.290 151.200,292.098 151.200 C 291.906 151.200,291.502 150.570,291.200 149.800 C 290.898 149.030,290.494 148.400,290.302 148.400 C 290.110 148.400,290.057 148.231,290.185 148.025 C 290.312 147.818,290.098 147.464,289.708 147.237 C 289.319 147.010,289.133 146.819,289.295 146.812 C 289.457 146.805,288.957 145.810,288.183 144.600 C 287.409 143.390,286.898 142.400,287.049 142.400 C 287.199 142.400,286.935 142.064,286.461 141.653 C 285.988 141.242,285.600 140.729,285.600 140.512 C 285.600 140.296,285.105 139.594,284.500 138.953 C 283.895 138.311,282.950 137.116,282.400 136.296 C 281.850 135.476,281.265 134.804,281.100 134.803 C 280.935 134.801,280.800 134.623,280.800 134.407 C 280.800 133.701,271.062 123.658,267.606 120.800 C 266.675 120.030,265.708 119.214,265.457 118.987 C 265.205 118.760,264.370 118.134,263.600 117.596 C 262.830 117.058,261.796 116.217,261.301 115.728 C 260.807 115.239,259.733 114.521,258.914 114.133 C 258.096 113.744,257.106 113.106,256.713 112.713 C 256.321 112.321,255.812 112.000,255.583 112.000 C 255.354 112.000,254.775 111.636,254.297 111.190 C 253.819 110.745,253.199 110.468,252.919 110.576 C 252.639 110.683,252.452 110.553,252.505 110.286 C 252.557 110.019,252.375 109.845,252.100 109.900 C 251.825 109.955,251.600 109.799,251.600 109.553 C 251.600 109.304,251.247 109.199,250.799 109.316 C 250.290 109.449,250.096 109.369,250.265 109.095 C 250.424 108.837,250.303 108.752,249.964 108.882 C 249.324 109.127,248.298 108.237,248.724 107.806 C 248.876 107.653,248.190 107.581,247.200 107.646 C 245.731 107.743,245.409 107.644,245.452 107.107 C 245.480 106.745,245.243 106.349,244.925 106.227 C 244.490 106.060,244.414 106.214,244.617 106.853 C 244.798 107.423,244.741 107.611,244.443 107.426 C 244.199 107.276,244.000 107.343,244.000 107.576 C 244.000 107.872,230.701 108.000,200.000 108.000 C 169.299 108.000,156.000 107.872,156.000 107.576 C 156.000 107.343,155.801 107.276,155.557 107.426 C 155.259 107.611,155.203 107.422,155.384 106.850 C 155.675 105.933,155.618 105.852,155.000 106.306 M280.910 108.290 C 280.807 108.559,281.020 109.077,281.384 109.441 C 281.748 109.805,281.955 110.341,281.843 110.631 C 281.708 110.985,281.854 111.077,282.286 110.912 C 282.672 110.764,282.830 110.828,282.679 111.071 C 282.541 111.296,282.781 111.859,283.214 112.323 C 283.646 112.787,284.000 113.444,284.000 113.783 C 284.000 114.122,284.218 114.355,284.485 114.300 C 284.752 114.245,285.156 114.607,285.382 115.104 C 285.608 115.601,286.072 116.096,286.414 116.204 C 286.755 116.313,287.702 117.031,288.518 117.801 C 289.334 118.570,290.271 119.200,290.601 119.200 C 290.930 119.200,291.200 119.380,291.200 119.600 C 291.200 119.820,291.560 120.000,292.000 120.000 C 292.440 120.000,292.800 120.180,292.800 120.400 C 292.800 120.620,293.124 120.800,293.520 120.800 C 293.916 120.800,294.456 121.016,294.720 121.280 C 294.984 121.544,295.200 121.628,295.200 121.466 C 295.200 121.304,295.569 121.369,296.020 121.611 C 296.471 121.852,297.596 122.132,298.520 122.234 C 299.444 122.335,300.830 122.527,301.600 122.659 C 303.198 122.934,303.197 122.934,307.110 122.565 C 308.711 122.415,310.116 122.136,310.234 121.946 C 310.351 121.755,310.799 121.600,311.229 121.600 C 311.659 121.600,312.323 121.441,312.705 121.247 C 313.087 121.052,313.940 120.647,314.600 120.347 C 315.260 120.046,316.040 119.573,316.332 119.296 C 316.625 119.019,317.058 118.912,317.294 119.058 C 317.538 119.209,317.608 119.137,317.456 118.891 C 317.308 118.651,317.560 118.340,318.020 118.194 C 318.860 117.927,323.685 113.439,323.591 113.011 C 323.563 112.884,323.629 112.560,323.738 112.290 C 323.869 111.966,323.948 112.004,323.971 112.400 C 324.018 113.235,325.203 110.876,325.295 109.764 C 325.336 109.266,325.491 108.933,325.639 109.024 C 325.788 109.116,325.991 108.878,326.091 108.496 C 326.326 107.599,281.254 107.393,280.910 108.290 M103.252 161.265 C 102.887 161.850,102.861 162.199,103.164 162.450 C 103.400 162.646,103.511 162.691,103.411 162.551 C 103.310 162.410,103.416 161.943,103.646 161.513 C 104.219 160.443,103.894 160.238,103.252 161.265 M296.198 161.000 C 296.362 161.440,296.504 162.031,296.514 162.313 C 296.526 162.637,296.673 162.687,296.913 162.447 C 297.152 162.208,297.036 161.723,296.597 161.134 C 296.023 160.363,295.954 160.340,296.198 161.000 " stroke="none" fill="#ac1c8a" fill-rule="evenodd"></path><path id="path4" d="M40.990 250.200 C 40.990 266.700,41.039 273.508,41.100 265.330 C 41.160 257.151,41.160 243.651,41.100 235.330 C 41.039 227.008,40.990 233.700,40.990 250.200 M358.990 250.200 C 358.990 266.700,359.039 273.508,359.100 265.330 C 359.160 257.151,359.160 243.651,359.100 235.330 C 359.039 227.008,358.990 233.700,358.990 250.200 M21.808 301.600 L 1.417 301.800 1.333 302.892 C 1.287 303.492,1.446 304.105,1.686 304.253 C 1.971 304.429,2.010 304.328,1.798 303.962 C 1.618 303.653,1.625 303.539,1.812 303.709 C 1.999 303.879,2.103 304.934,2.044 306.053 C 1.978 307.288,2.088 307.993,2.323 307.847 C 2.703 307.613,3.027 308.708,3.465 311.703 C 3.586 312.529,3.845 313.305,4.042 313.426 C 4.239 313.548,4.400 314.357,4.400 315.224 C 4.400 316.091,4.580 316.800,4.800 316.800 C 5.020 316.800,5.200 317.250,5.200 317.800 C 5.200 318.350,5.380 318.800,5.600 318.800 C 5.820 318.800,6.000 319.102,6.000 319.472 C 6.000 320.328,6.886 322.800,7.193 322.800 C 7.321 322.800,7.466 323.295,7.516 323.900 C 7.566 324.505,7.785 325.060,8.003 325.133 C 8.222 325.207,8.400 325.666,8.400 326.153 C 8.400 326.641,8.616 327.256,8.880 327.520 C 9.144 327.784,9.228 328.000,9.066 328.000 C 8.904 328.000,8.997 328.405,9.272 328.900 C 9.547 329.395,9.790 329.890,9.812 330.000 C 9.940 330.638,12.232 335.113,12.732 335.702 C 13.060 336.089,13.213 336.521,13.071 336.662 C 12.930 336.803,13.183 337.238,13.634 337.629 C 14.084 338.020,14.441 338.443,14.426 338.570 C 14.329 339.422,14.470 339.659,14.962 339.470 C 15.360 339.317,15.494 339.527,15.421 340.192 C 15.349 340.845,15.484 341.066,15.863 340.920 C 16.221 340.783,16.331 340.915,16.182 341.304 C 16.054 341.635,16.226 342.001,16.570 342.133 C 16.909 342.263,17.087 342.628,16.966 342.944 C 16.845 343.260,16.966 343.655,17.235 343.821 C 17.570 344.028,17.621 343.957,17.396 343.594 C 17.158 343.209,17.251 343.134,17.734 343.319 C 18.100 343.460,18.400 343.401,18.400 343.187 C 18.400 342.974,18.220 342.800,18.000 342.800 C 17.780 342.800,17.600 342.615,17.600 342.389 C 17.600 342.112,25.997 341.989,43.400 342.012 C 57.590 342.030,69.200 342.197,69.200 342.383 C 69.200 342.569,69.767 342.919,70.460 343.161 C 71.986 343.693,72.400 343.711,72.400 343.244 C 72.400 343.049,72.175 342.897,71.900 342.907 C 70.536 342.958,69.825 342.772,70.279 342.483 C 70.607 342.275,70.387 341.930,69.580 341.389 C 68.932 340.955,68.400 340.420,68.398 340.200 C 68.396 339.980,67.651 339.376,66.743 338.857 C 65.796 338.316,65.277 337.800,65.526 337.646 C 65.778 337.490,65.475 337.163,64.803 336.866 C 64.167 336.584,63.416 335.833,63.134 335.197 C 62.853 334.561,62.523 334.200,62.402 334.396 C 62.281 334.592,61.752 334.124,61.226 333.356 C 60.700 332.589,59.579 331.228,58.735 330.331 C 57.891 329.435,57.200 328.553,57.200 328.371 C 57.200 328.190,56.750 327.556,56.200 326.962 C 55.650 326.369,55.200 325.706,55.200 325.489 C 55.200 325.271,54.885 324.801,54.500 324.443 C 53.818 323.809,53.593 323.459,51.925 320.445 C 51.485 319.650,50.962 318.829,50.762 318.620 C 50.563 318.411,50.400 317.931,50.400 317.553 C 50.400 317.176,50.265 316.807,50.100 316.733 C 49.668 316.541,48.000 313.228,48.000 312.562 C 48.000 312.253,47.865 311.999,47.700 311.997 C 47.294 311.993,46.400 310.014,46.400 309.120 C 46.400 308.724,46.220 308.400,46.000 308.400 C 45.780 308.400,45.600 307.986,45.600 307.480 C 45.600 306.974,45.425 306.385,45.211 306.171 C 44.998 305.958,44.768 305.427,44.700 304.991 C 44.632 304.556,44.446 303.991,44.287 303.736 C 44.127 303.480,43.958 302.805,43.911 302.236 C 43.864 301.666,43.584 301.200,43.289 301.200 C 42.994 301.200,42.856 301.368,42.983 301.572 C 43.109 301.777,43.002 302.075,42.745 302.234 C 42.463 302.408,42.383 302.351,42.545 302.089 C 42.978 301.389,43.082 301.391,21.808 301.600 M180.260 301.483 C 179.614 301.650,179.651 301.741,180.555 302.210 C 182.368 303.151,185.250 302.652,184.550 301.519 C 184.194 300.943,183.509 301.186,183.746 301.805 C 183.954 302.344,183.853 302.344,182.809 301.805 C 181.599 301.179,181.494 301.166,180.260 301.483 M215.450 301.519 C 214.754 302.645,217.629 303.153,219.424 302.221 L 220.437 301.696 219.415 301.439 C 218.803 301.286,217.917 301.429,217.207 301.796 C 216.156 302.340,216.048 302.341,216.254 301.805 C 216.491 301.186,215.806 300.943,215.450 301.519 M356.089 302.236 C 356.042 302.805,355.873 303.480,355.713 303.736 C 355.554 303.991,355.368 304.556,355.300 304.991 C 355.232 305.427,355.002 305.958,354.789 306.171 C 354.575 306.385,354.400 306.974,354.400 307.480 C 354.400 307.986,354.220 308.400,354.000 308.400 C 353.780 308.400,353.600 308.724,353.600 309.120 C 353.600 310.014,352.706 311.993,352.300 311.997 C 352.135 311.999,352.000 312.253,352.000 312.562 C 352.000 313.228,350.332 316.541,349.900 316.733 C 349.735 316.807,349.600 317.176,349.600 317.553 C 349.600 317.931,349.437 318.411,349.238 318.620 C 349.038 318.829,348.515 319.650,348.075 320.445 C 346.407 323.459,346.182 323.809,345.500 324.443 C 345.115 324.801,344.800 325.271,344.800 325.489 C 344.800 325.706,344.350 326.369,343.800 326.962 C 343.250 327.556,342.800 328.190,342.800 328.371 C 342.800 328.553,342.109 329.435,341.265 330.331 C 340.421 331.228,339.300 332.589,338.774 333.356 C 338.248 334.124,337.719 334.592,337.598 334.396 C 337.477 334.200,337.147 334.561,336.866 335.197 C 336.584 335.833,335.833 336.584,335.197 336.866 C 334.525 337.163,334.222 337.490,334.474 337.646 C 334.723 337.800,334.204 338.316,333.257 338.857 C 332.349 339.376,331.604 339.980,331.602 340.200 C 331.600 340.420,331.068 340.955,330.420 341.389 C 329.613 341.930,329.393 342.275,329.721 342.483 C 330.171 342.769,329.487 342.953,328.124 342.911 C 327.862 342.903,327.559 343.130,327.449 343.416 C 327.294 343.820,327.642 343.801,329.025 343.330 C 330.001 342.997,330.800 342.572,330.800 342.385 C 330.800 342.198,342.410 342.030,356.600 342.012 C 374.003 341.989,382.400 342.112,382.400 342.389 C 382.400 342.615,382.220 342.800,382.000 342.800 C 381.780 342.800,381.600 342.974,381.600 343.187 C 381.600 343.401,381.900 343.460,382.266 343.319 C 382.749 343.134,382.842 343.209,382.604 343.594 C 382.379 343.957,382.430 344.028,382.765 343.821 C 383.034 343.655,383.155 343.260,383.034 342.944 C 382.913 342.628,383.091 342.263,383.430 342.133 C 383.774 342.001,383.946 341.635,383.818 341.304 C 383.669 340.915,383.779 340.783,384.137 340.920 C 384.516 341.066,384.651 340.845,384.579 340.192 C 384.506 339.527,384.640 339.317,385.038 339.470 C 385.530 339.659,385.671 339.422,385.574 338.570 C 385.559 338.443,385.916 338.020,386.366 337.629 C 386.817 337.238,387.070 336.803,386.929 336.662 C 386.787 336.521,386.940 336.089,387.268 335.702 C 387.768 335.113,390.060 330.638,390.188 330.000 C 390.210 329.890,390.453 329.395,390.728 328.900 C 391.003 328.405,391.096 328.000,390.934 328.000 C 390.772 328.000,390.856 327.784,391.120 327.520 C 391.384 327.256,391.600 326.641,391.600 326.153 C 391.600 325.666,391.778 325.207,391.997 325.133 C 392.215 325.060,392.434 324.505,392.484 323.900 C 392.534 323.295,392.679 322.800,392.807 322.800 C 393.114 322.800,394.000 320.328,394.000 319.472 C 394.000 319.102,394.180 318.800,394.400 318.800 C 394.620 318.800,394.800 318.350,394.800 317.800 C 394.800 317.250,394.980 316.800,395.200 316.800 C 395.420 316.800,395.600 316.091,395.600 315.224 C 395.600 314.357,395.761 313.548,395.958 313.426 C 396.155 313.305,396.414 312.529,396.535 311.703 C 396.973 308.708,397.297 307.613,397.677 307.847 C 397.912 307.993,398.022 307.288,397.956 306.053 C 397.897 304.934,398.001 303.879,398.188 303.709 C 398.375 303.539,398.382 303.653,398.202 303.962 C 397.998 304.314,398.030 304.429,398.288 304.269 C 398.762 303.976,398.848 302.077,398.400 301.800 C 397.710 301.373,357.401 301.596,357.510 302.026 C 357.570 302.264,357.432 302.344,357.203 302.202 C 356.974 302.061,356.891 301.777,357.017 301.572 C 357.144 301.368,357.006 301.200,356.711 301.200 C 356.416 301.200,356.136 301.666,356.089 302.236 M184.998 302.003 C 184.861 302.225,185.065 302.720,185.452 303.103 C 186.108 303.754,186.138 303.754,185.895 303.113 C 185.752 302.735,185.835 302.302,186.079 302.151 C 186.348 301.985,186.411 302.059,186.238 302.338 C 186.063 302.622,186.232 302.802,186.676 302.806 C 187.290 302.811,187.309 302.871,186.800 303.200 C 186.309 303.517,186.355 303.589,187.051 303.594 C 188.011 303.601,188.948 302.697,188.497 302.199 C 188.333 302.019,188.434 302.007,188.719 302.171 C 189.107 302.395,189.125 302.608,188.792 303.010 C 188.434 303.442,188.585 303.541,189.559 303.514 C 190.226 303.495,190.691 303.347,190.591 303.185 C 190.491 303.023,190.687 302.660,191.027 302.378 C 191.367 302.095,191.614 302.030,191.575 302.232 C 191.399 303.156,191.652 303.289,192.230 302.576 C 192.576 302.149,192.775 301.980,192.672 302.200 C 192.568 302.420,192.735 302.832,193.042 303.116 C 193.349 303.399,193.600 303.500,193.600 303.339 C 193.600 303.179,193.885 303.396,194.233 303.824 C 194.773 304.487,194.833 304.498,194.645 303.900 C 194.370 303.025,194.559 303.017,195.408 303.865 C 195.970 304.427,196.128 304.442,196.430 303.965 C 196.627 303.654,196.791 303.599,196.794 303.843 C 196.802 304.452,203.198 304.452,203.206 303.843 C 203.209 303.599,203.373 303.654,203.570 303.965 C 203.872 304.442,204.030 304.427,204.592 303.865 C 205.441 303.017,205.630 303.025,205.355 303.900 C 205.167 304.498,205.227 304.487,205.767 303.824 C 206.115 303.396,206.400 303.179,206.400 303.339 C 206.400 303.500,206.651 303.399,206.958 303.116 C 207.265 302.832,207.432 302.420,207.328 302.200 C 207.225 301.980,207.424 302.149,207.770 302.576 C 208.348 303.289,208.601 303.156,208.425 302.232 C 208.386 302.030,208.633 302.095,208.973 302.378 C 209.313 302.660,209.509 303.023,209.409 303.185 C 209.309 303.347,209.774 303.495,210.441 303.514 C 211.415 303.541,211.566 303.442,211.208 303.010 C 210.875 302.608,210.893 302.395,211.281 302.171 C 211.566 302.007,211.667 302.019,211.503 302.199 C 211.052 302.697,211.989 303.601,212.949 303.594 C 213.645 303.589,213.691 303.517,213.200 303.200 C 212.691 302.871,212.710 302.811,213.324 302.806 C 213.768 302.802,213.937 302.622,213.762 302.338 C 213.589 302.059,213.652 301.985,213.921 302.151 C 214.165 302.302,214.248 302.735,214.105 303.113 C 213.862 303.754,213.892 303.754,214.548 303.103 C 214.935 302.720,215.139 302.225,215.002 302.003 C 214.660 301.450,185.340 301.450,184.998 302.003 M159.900 359.100 C 181.955 359.157,218.045 359.157,240.100 359.100 C 262.155 359.043,244.110 358.996,200.000 358.996 C 155.890 358.996,137.845 359.043,159.900 359.100 " stroke="none" fill="#ce6349" fill-rule="evenodd"></path><path id="path5" d="M39.534 283.188 C 39.449 283.436,32.175 283.621,19.800 283.690 L 0.200 283.800 0.085 287.950 C -0.015 291.574,0.194 294.225,1.074 300.498 C 1.189 301.322,1.422 301.910,1.592 301.805 C 2.288 301.375,42.600 301.593,42.490 302.026 C 42.430 302.264,42.568 302.344,42.797 302.202 C 43.026 302.061,43.109 301.777,42.983 301.572 C 42.856 301.368,42.939 301.200,43.166 301.200 C 43.635 301.200,43.300 298.826,42.747 298.220 C 42.556 298.011,42.400 297.167,42.400 296.344 C 42.400 295.521,42.250 294.754,42.066 294.641 C 41.883 294.528,41.692 293.312,41.643 291.941 C 41.593 290.569,41.433 289.256,41.286 289.023 C 41.140 288.791,40.970 288.150,40.909 287.600 C 40.602 284.828,40.342 283.988,39.880 284.266 C 39.558 284.459,39.571 284.342,39.919 283.912 C 40.233 283.525,40.286 283.177,40.054 283.033 C 39.842 282.902,39.608 282.972,39.534 283.188 M359.876 283.057 C 359.728 283.205,359.830 283.603,360.103 283.940 C 360.466 284.388,360.471 284.476,360.120 284.266 C 359.658 283.988,359.398 284.828,359.091 287.600 C 359.030 288.150,358.860 288.791,358.714 289.023 C 358.567 289.256,358.407 290.569,358.357 291.941 C 358.308 293.312,358.117 294.528,357.934 294.641 C 357.750 294.754,357.600 295.521,357.600 296.344 C 357.600 297.167,357.444 298.011,357.253 298.220 C 356.700 298.826,356.365 301.200,356.834 301.200 C 357.061 301.200,357.144 301.368,357.017 301.572 C 356.891 301.777,356.974 302.061,357.203 302.202 C 357.432 302.344,357.570 302.264,357.510 302.026 C 357.400 301.593,397.712 301.375,398.408 301.805 C 398.578 301.910,398.811 301.322,398.926 300.498 C 399.806 294.225,400.015 291.574,399.915 287.950 L 399.800 283.800 380.217 283.690 C 367.862 283.620,360.544 283.433,360.390 283.184 C 360.255 282.966,360.024 282.909,359.876 283.057 M139.862 283.691 C 139.608 283.851,139.040 283.875,138.600 283.745 C 138.160 283.614,138.483 283.978,139.318 284.554 C 140.153 285.129,140.988 285.600,141.175 285.600 C 141.362 285.600,141.622 285.881,141.754 286.225 C 141.886 286.569,142.176 286.739,142.397 286.602 C 142.619 286.465,142.800 286.543,142.800 286.776 C 142.800 287.009,142.935 287.164,143.100 287.119 C 143.265 287.075,144.692 287.885,146.270 288.919 C 147.849 289.954,149.379 290.806,149.670 290.813 C 150.463 290.832,151.630 291.832,151.294 292.204 C 151.132 292.382,151.210 292.408,151.468 292.260 C 151.725 292.113,152.175 292.219,152.468 292.496 C 152.760 292.773,153.360 293.063,153.800 293.140 C 154.240 293.217,154.690 293.397,154.800 293.540 C 155.217 294.082,156.822 294.800,157.618 294.800 C 158.074 294.800,158.336 294.980,158.200 295.200 C 158.060 295.427,158.396 295.600,158.976 295.600 C 159.539 295.600,160.000 295.780,160.000 296.000 C 160.000 296.220,160.461 296.400,161.024 296.400 C 161.621 296.400,161.942 296.571,161.794 296.810 C 161.655 297.035,161.689 297.175,161.870 297.120 C 162.536 296.919,166.000 298.118,166.006 298.552 C 166.009 298.798,166.187 298.730,166.400 298.400 C 166.658 298.000,166.790 297.967,166.794 298.300 C 166.797 298.575,167.072 298.800,167.405 298.800 C 167.738 298.800,168.323 298.962,168.705 299.161 C 170.202 299.939,172.784 300.493,173.864 300.268 C 174.489 300.138,174.775 300.130,174.500 300.249 C 173.619 300.632,173.964 301.082,175.100 301.032 C 175.705 301.005,176.425 301.144,176.700 301.340 C 177.011 301.562,177.431 301.506,177.809 301.192 C 178.318 300.770,178.377 300.794,178.166 301.343 C 177.868 302.121,178.530 302.192,180.307 301.572 C 181.274 301.236,181.792 301.279,182.756 301.777 C 183.883 302.360,183.959 302.358,183.726 301.750 C 183.550 301.294,183.646 301.151,184.036 301.287 C 184.346 301.395,184.551 301.824,184.490 302.241 C 184.388 302.946,184.411 302.950,184.810 302.300 C 185.207 301.654,186.373 301.600,200.000 301.600 C 213.627 301.600,214.793 301.654,215.190 302.300 C 215.589 302.950,215.612 302.946,215.510 302.241 C 215.449 301.824,215.654 301.395,215.964 301.287 C 216.354 301.151,216.450 301.294,216.274 301.750 C 216.041 302.358,216.117 302.360,217.244 301.777 C 218.208 301.279,218.726 301.236,219.693 301.572 C 221.470 302.192,222.132 302.121,221.834 301.343 C 221.623 300.794,221.682 300.770,222.191 301.192 C 222.569 301.506,222.989 301.562,223.300 301.340 C 223.575 301.144,224.295 301.005,224.900 301.032 C 226.036 301.082,226.381 300.632,225.500 300.249 C 225.225 300.130,225.511 300.138,226.136 300.268 C 227.216 300.493,229.798 299.939,231.295 299.161 C 231.677 298.962,232.262 298.800,232.595 298.800 C 232.928 298.800,233.203 298.575,233.206 298.300 C 233.210 297.967,233.342 298.000,233.600 298.400 C 233.813 298.730,233.991 298.798,233.994 298.552 C 234.000 298.118,237.464 296.919,238.130 297.120 C 238.311 297.175,238.345 297.035,238.206 296.810 C 238.058 296.571,238.379 296.400,238.976 296.400 C 239.539 296.400,240.000 296.220,240.000 296.000 C 240.000 295.780,240.461 295.600,241.024 295.600 C 241.604 295.600,241.940 295.427,241.800 295.200 C 241.664 294.980,241.926 294.800,242.382 294.800 C 243.178 294.800,244.783 294.082,245.200 293.540 C 245.310 293.397,245.760 293.217,246.200 293.140 C 246.640 293.063,247.240 292.773,247.532 292.496 C 247.825 292.219,248.275 292.113,248.532 292.260 C 248.790 292.408,248.868 292.382,248.706 292.204 C 248.370 291.832,249.537 290.832,250.330 290.813 C 250.621 290.806,252.151 289.954,253.730 288.919 C 255.308 287.885,256.735 287.075,256.900 287.119 C 257.065 287.164,257.200 287.009,257.200 286.776 C 257.200 286.543,257.381 286.465,257.603 286.602 C 257.824 286.739,258.114 286.569,258.246 286.225 C 258.378 285.881,258.638 285.600,258.825 285.600 C 259.012 285.600,259.799 285.169,260.575 284.643 C 261.803 283.809,261.870 283.686,261.093 283.691 C 260.602 283.693,233.228 283.629,200.262 283.548 C 167.296 283.467,140.116 283.531,139.862 283.691 M190.830 302.564 C 190.249 303.264,190.759 303.628,192.160 303.512 C 193.140 303.430,193.686 302.800,192.776 302.800 C 192.543 302.800,192.467 302.575,192.606 302.300 C 192.745 302.025,192.576 302.149,192.230 302.576 C 191.667 303.270,191.416 303.167,191.553 302.300 C 191.625 301.840,191.347 301.942,190.830 302.564 M207.394 302.300 C 207.533 302.575,207.457 302.800,207.224 302.800 C 206.237 302.800,206.902 303.438,207.974 303.519 C 209.368 303.626,209.835 303.093,208.973 302.378 C 208.633 302.095,208.386 302.030,208.425 302.232 C 208.601 303.156,208.348 303.289,207.770 302.576 C 207.424 302.149,207.255 302.025,207.394 302.300 " stroke="none" fill="#cc524c" fill-rule="evenodd"></path><path id="path6" d="M66.503 60.606 C 66.670 60.789,66.342 61.244,65.775 61.616 C 64.917 62.179,64.853 62.335,65.393 62.542 C 65.771 62.687,65.940 62.626,65.797 62.395 C 65.663 62.178,65.814 62.000,66.134 62.000 C 66.891 62.000,67.305 60.906,66.683 60.549 C 66.417 60.396,66.336 60.422,66.503 60.606 M333.094 60.639 C 332.698 61.036,333.245 62.000,333.866 62.000 C 334.186 62.000,334.337 62.178,334.203 62.395 C 334.060 62.626,334.229 62.687,334.607 62.542 C 335.147 62.335,335.083 62.179,334.225 61.616 C 333.658 61.244,333.315 60.818,333.463 60.670 C 333.612 60.521,333.643 60.400,333.533 60.400 C 333.423 60.400,333.226 60.508,333.094 60.639 M13.939 61.500 C 13.906 61.665,13.852 62.070,13.820 62.400 C 13.789 62.730,13.533 62.951,13.251 62.890 C 12.939 62.823,12.769 63.133,12.814 63.690 C 12.933 65.150,12.816 65.441,12.368 64.800 C 12.039 64.330,12.003 64.395,12.201 65.100 C 12.386 65.758,12.285 66.000,11.827 66.000 C 11.482 66.000,11.200 66.242,11.200 66.539 C 11.200 66.835,10.892 67.690,10.515 68.439 C 10.137 69.187,9.773 70.152,9.704 70.583 C 9.636 71.013,9.427 71.463,9.240 71.583 C 9.053 71.702,8.766 72.418,8.602 73.173 C 8.439 73.928,7.963 75.154,7.546 75.897 C 7.129 76.639,6.751 77.687,6.706 78.224 C 6.662 78.761,6.485 79.200,6.313 79.200 C 6.141 79.200,6.000 79.549,6.000 79.976 C 6.000 80.403,5.820 80.864,5.600 81.000 C 5.380 81.136,5.200 81.687,5.200 82.224 C 5.200 82.761,5.020 83.200,4.800 83.200 C 4.580 83.200,4.400 83.830,4.400 84.600 C 4.400 85.370,4.220 86.000,4.000 86.000 C 3.780 86.000,3.600 86.619,3.600 87.376 C 3.600 88.133,3.420 88.864,3.200 89.000 C 2.980 89.136,2.800 89.867,2.800 90.624 C 2.800 91.381,2.620 92.000,2.400 92.000 C 2.180 92.000,2.000 92.709,2.000 93.576 C 2.000 94.443,1.820 95.264,1.600 95.400 C 1.380 95.536,1.200 96.796,1.200 98.200 C 1.200 99.604,1.012 100.869,0.781 101.012 C 0.542 101.159,0.435 102.111,0.532 103.235 C 0.642 104.522,0.545 105.202,0.250 105.206 C 0.003 105.209,0.070 105.384,0.400 105.594 C 0.883 105.901,0.907 106.125,0.524 106.745 C 0.261 107.168,0.150 107.617,0.276 107.743 C 0.963 108.430,40.107 108.008,40.683 107.307 C 41.238 106.633,41.255 106.633,41.037 107.321 C 40.893 107.776,40.968 107.943,41.239 107.776 C 41.476 107.629,41.584 107.183,41.480 106.785 C 41.339 106.245,41.458 106.122,41.945 106.305 C 42.534 106.525,42.540 106.474,42.000 105.798 C 41.651 105.361,41.609 105.172,41.900 105.347 C 42.267 105.567,42.400 105.223,42.400 104.057 C 42.400 103.182,42.571 102.407,42.780 102.333 C 42.989 102.260,43.204 101.435,43.258 100.500 C 43.312 99.565,43.501 98.800,43.678 98.800 C 43.855 98.800,44.000 98.260,44.000 97.600 C 44.000 96.940,44.141 96.400,44.313 96.400 C 44.485 96.400,44.666 95.905,44.716 95.300 C 44.766 94.695,44.985 94.140,45.203 94.067 C 45.422 93.993,45.600 93.408,45.600 92.767 C 45.600 92.125,45.780 91.600,46.000 91.600 C 46.220 91.600,46.400 91.240,46.400 90.800 C 46.400 90.360,46.580 90.000,46.800 90.000 C 47.020 90.000,47.155 89.856,47.100 89.680 C 46.944 89.181,48.110 86.400,48.475 86.400 C 48.654 86.400,48.800 86.040,48.800 85.600 C 48.800 85.160,48.980 84.800,49.200 84.800 C 49.420 84.800,49.600 84.566,49.600 84.280 C 49.600 83.544,50.541 81.607,50.900 81.603 C 51.065 81.601,51.200 81.364,51.200 81.075 C 51.200 80.787,51.578 80.145,52.040 79.649 C 52.502 79.153,52.783 78.649,52.663 78.530 C 52.543 78.410,52.885 77.615,53.423 76.764 C 53.960 75.913,54.403 74.987,54.406 74.708 C 54.410 74.359,54.533 74.388,54.800 74.800 C 55.058 75.200,55.190 75.233,55.194 74.900 C 55.205 73.986,55.302 73.804,56.056 73.276 C 56.468 72.987,57.095 72.190,57.450 71.503 C 57.805 70.817,58.951 69.422,59.997 68.403 C 61.043 67.385,62.022 66.161,62.173 65.684 C 62.325 65.207,62.663 64.858,62.924 64.908 C 63.206 64.962,63.349 64.632,63.275 64.100 C 63.200 63.562,63.361 63.198,63.675 63.194 C 64.058 63.189,64.038 63.083,63.600 62.800 C 63.087 62.469,63.102 62.411,63.700 62.406 C 64.085 62.403,64.400 62.225,64.400 62.012 C 64.400 61.509,16.422 61.464,15.636 61.966 C 14.975 62.388,13.904 62.079,14.226 61.558 C 14.348 61.361,14.347 61.200,14.224 61.200 C 14.101 61.200,13.973 61.335,13.939 61.500 M385.736 61.496 C 386.087 62.065,385.066 62.414,384.364 61.966 C 383.578 61.464,335.600 61.509,335.600 62.012 C 335.600 62.225,335.915 62.403,336.300 62.406 C 336.898 62.411,336.913 62.469,336.400 62.800 C 335.962 63.083,335.942 63.189,336.325 63.194 C 336.639 63.198,336.800 63.562,336.725 64.100 C 336.651 64.632,336.794 64.962,337.076 64.908 C 337.337 64.858,337.675 65.207,337.827 65.684 C 337.978 66.161,338.957 67.385,340.003 68.403 C 341.049 69.422,342.195 70.817,342.550 71.503 C 342.905 72.190,343.532 72.987,343.944 73.276 C 344.698 73.804,344.795 73.986,344.806 74.900 C 344.810 75.233,344.942 75.200,345.200 74.800 C 345.467 74.388,345.590 74.359,345.594 74.708 C 345.597 74.987,346.040 75.913,346.577 76.764 C 347.115 77.615,347.457 78.410,347.337 78.530 C 347.217 78.649,347.498 79.153,347.960 79.649 C 348.422 80.145,348.800 80.787,348.800 81.075 C 348.800 81.364,348.935 81.601,349.100 81.603 C 349.459 81.607,350.400 83.544,350.400 84.280 C 350.400 84.566,350.580 84.800,350.800 84.800 C 351.020 84.800,351.200 85.160,351.200 85.600 C 351.200 86.040,351.346 86.400,351.525 86.400 C 351.890 86.400,353.056 89.181,352.900 89.680 C 352.845 89.856,352.980 90.000,353.200 90.000 C 353.420 90.000,353.600 90.360,353.600 90.800 C 353.600 91.240,353.780 91.600,354.000 91.600 C 354.220 91.600,354.400 92.125,354.400 92.767 C 354.400 93.408,354.578 93.993,354.797 94.067 C 355.015 94.140,355.234 94.695,355.284 95.300 C 355.334 95.905,355.515 96.400,355.687 96.400 C 355.859 96.400,356.000 96.940,356.000 97.600 C 356.000 98.260,356.145 98.800,356.322 98.800 C 356.499 98.800,356.688 99.565,356.742 100.500 C 356.796 101.435,357.011 102.260,357.220 102.333 C 357.429 102.407,357.600 103.182,357.600 104.057 C 357.600 105.223,357.733 105.567,358.100 105.347 C 358.391 105.172,358.349 105.361,358.000 105.798 C 357.460 106.474,357.466 106.525,358.055 106.305 C 358.542 106.122,358.661 106.245,358.520 106.785 C 358.416 107.183,358.524 107.629,358.761 107.776 C 359.032 107.943,359.107 107.776,358.963 107.321 C 358.745 106.633,358.762 106.633,359.317 107.307 C 359.893 108.008,399.037 108.430,399.724 107.743 C 399.850 107.617,399.739 107.168,399.476 106.745 C 399.093 106.125,399.117 105.901,399.600 105.594 C 399.930 105.384,399.997 105.209,399.750 105.206 C 399.455 105.202,399.358 104.522,399.468 103.235 C 399.565 102.111,399.458 101.159,399.219 101.012 C 398.988 100.869,398.800 99.604,398.800 98.200 C 398.800 96.796,398.620 95.536,398.400 95.400 C 398.180 95.264,398.000 94.443,398.000 93.576 C 398.000 92.709,397.820 92.000,397.600 92.000 C 397.380 92.000,397.200 91.381,397.200 90.624 C 397.200 89.867,397.020 89.136,396.800 89.000 C 396.580 88.864,396.400 88.133,396.400 87.376 C 396.400 86.619,396.220 86.000,396.000 86.000 C 395.780 86.000,395.600 85.370,395.600 84.600 C 395.600 83.830,395.420 83.200,395.200 83.200 C 394.980 83.200,394.800 82.761,394.800 82.224 C 394.800 81.687,394.620 81.136,394.400 81.000 C 394.180 80.864,394.000 80.403,394.000 79.976 C 394.000 79.549,393.859 79.200,393.687 79.200 C 393.515 79.200,393.338 78.761,393.294 78.224 C 393.249 77.687,392.871 76.639,392.454 75.897 C 392.037 75.154,391.561 73.928,391.398 73.173 C 391.234 72.418,390.947 71.702,390.760 71.583 C 390.573 71.463,390.364 71.013,390.296 70.583 C 390.227 70.152,389.863 69.187,389.485 68.439 C 389.108 67.690,388.800 66.835,388.800 66.539 C 388.800 66.242,388.518 66.000,388.173 66.000 C 387.715 66.000,387.614 65.758,387.799 65.100 C 387.997 64.395,387.961 64.330,387.632 64.800 C 387.184 65.441,387.067 65.150,387.186 63.690 C 387.232 63.119,387.062 62.821,386.730 62.890 C 386.427 62.953,386.247 62.713,386.311 62.330 C 386.371 61.962,386.209 61.529,385.949 61.368 C 385.669 61.196,385.582 61.248,385.736 61.496 M302.600 72.000 C 302.805 72.332,298.821 72.672,297.470 72.437 C 297.289 72.406,297.255 72.565,297.394 72.790 C 297.549 73.041,297.094 73.200,296.224 73.200 C 295.441 73.200,294.800 73.380,294.800 73.600 C 294.800 73.820,294.523 74.000,294.184 74.000 C 293.845 74.000,292.900 74.341,292.084 74.757 C 291.268 75.174,290.420 75.554,290.200 75.603 C 289.266 75.809,284.000 80.317,284.000 80.910 C 284.000 81.093,283.461 81.819,282.802 82.522 C 282.143 83.225,281.603 84.025,281.602 84.300 C 281.601 84.575,281.420 84.800,281.200 84.800 C 280.980 84.800,280.800 85.160,280.800 85.600 C 280.800 86.040,280.620 86.400,280.400 86.400 C 280.180 86.400,280.000 86.929,280.000 87.576 C 280.000 88.223,279.820 88.864,279.600 89.000 C 279.380 89.136,279.200 89.672,279.200 90.190 C 279.200 90.709,279.014 91.195,278.786 91.271 C 278.527 91.358,278.386 93.282,278.410 96.405 C 278.458 102.637,278.497 103.200,278.886 103.200 C 279.059 103.200,279.200 103.836,279.200 104.613 C 279.200 105.531,279.421 106.110,279.832 106.268 C 280.208 106.412,280.386 106.809,280.272 107.246 C 280.087 107.954,280.928 107.978,303.189 107.891 C 322.968 107.813,326.267 107.882,326.081 108.366 C 325.938 108.738,326.032 108.828,326.356 108.627 C 326.626 108.460,326.794 107.846,326.728 107.262 C 326.657 106.626,326.793 106.235,327.068 106.288 C 327.333 106.339,327.482 105.967,327.421 105.409 C 327.362 104.877,327.541 104.355,327.817 104.249 C 328.094 104.143,328.320 103.408,328.320 102.617 C 328.320 101.826,328.493 100.958,328.705 100.689 C 329.259 99.985,329.375 94.245,328.828 94.583 C 328.544 94.758,328.400 94.109,328.400 92.647 C 328.400 91.437,328.220 90.336,328.000 90.200 C 327.780 90.064,327.600 89.434,327.600 88.800 C 327.600 88.166,327.420 87.536,327.200 87.400 C 326.980 87.264,326.797 86.758,326.794 86.276 C 326.789 85.645,326.693 85.549,326.450 85.932 C 326.210 86.311,326.045 86.123,325.876 85.280 C 325.746 84.629,325.405 83.850,325.120 83.548 C 324.834 83.247,324.354 82.522,324.053 81.939 C 322.920 79.740,318.087 75.782,315.500 74.936 C 315.115 74.810,314.800 74.548,314.800 74.353 C 314.800 74.159,314.260 74.000,313.600 74.000 C 312.940 74.000,312.400 73.820,312.400 73.600 C 312.400 73.380,311.950 73.200,311.400 73.200 C 310.850 73.200,310.400 73.050,310.400 72.866 C 310.400 72.682,309.288 72.491,307.930 72.442 C 306.571 72.393,305.143 72.184,304.756 71.976 C 303.823 71.477,302.287 71.494,302.600 72.000 M194.574 95.958 C 194.762 96.262,194.856 96.253,189.500 96.397 C 187.355 96.455,185.600 96.659,185.600 96.851 C 185.600 97.043,184.556 97.200,183.280 97.200 C 182.004 97.200,180.789 97.370,180.580 97.579 C 180.371 97.787,179.423 98.003,178.474 98.058 C 177.525 98.114,176.660 98.304,176.551 98.480 C 176.442 98.656,175.838 98.800,175.210 98.800 C 174.581 98.800,174.004 98.988,173.927 99.218 C 173.851 99.448,173.116 99.673,172.294 99.718 C 171.473 99.763,170.800 99.935,170.800 100.100 C 170.800 100.265,170.260 100.400,169.600 100.400 C 168.940 100.400,168.400 100.580,168.400 100.800 C 168.400 101.020,167.875 101.200,167.233 101.200 C 166.592 101.200,166.007 101.378,165.933 101.597 C 165.860 101.815,165.305 102.034,164.700 102.084 C 164.092 102.134,163.600 102.414,163.600 102.711 C 163.600 103.006,163.418 103.135,163.196 102.998 C 162.683 102.681,161.127 103.158,161.373 103.556 C 161.475 103.721,160.999 103.773,160.315 103.673 C 159.299 103.524,159.117 103.608,159.319 104.132 C 159.454 104.486,159.365 104.898,159.121 105.049 C 158.843 105.221,158.790 105.140,158.978 104.835 C 159.336 104.257,158.095 104.377,157.271 105.000 C 155.597 106.267,154.209 108.259,155.600 107.400 C 155.820 107.264,156.000 107.343,156.000 107.576 C 156.000 107.872,169.299 108.000,200.000 108.000 C 230.701 108.000,244.000 107.872,244.000 107.576 C 244.000 107.343,244.180 107.264,244.400 107.400 C 245.791 108.259,244.403 106.267,242.729 105.000 C 241.905 104.377,240.664 104.257,241.022 104.835 C 241.210 105.140,241.157 105.221,240.879 105.049 C 240.635 104.898,240.546 104.486,240.681 104.132 C 240.883 103.608,240.701 103.524,239.685 103.673 C 239.001 103.773,238.525 103.721,238.627 103.556 C 238.873 103.158,237.317 102.681,236.804 102.998 C 236.582 103.135,236.400 103.006,236.400 102.711 C 236.400 102.414,235.908 102.134,235.300 102.084 C 234.695 102.034,234.140 101.815,234.067 101.597 C 233.993 101.378,233.408 101.200,232.767 101.200 C 232.125 101.200,231.600 101.020,231.600 100.800 C 231.600 100.580,231.060 100.400,230.400 100.400 C 229.740 100.400,229.200 100.265,229.200 100.100 C 229.200 99.935,228.527 99.763,227.706 99.718 C 226.884 99.673,226.149 99.448,226.073 99.218 C 225.996 98.988,225.419 98.800,224.790 98.800 C 224.162 98.800,223.558 98.656,223.449 98.480 C 223.340 98.304,222.475 98.114,221.526 98.058 C 220.577 98.003,219.629 97.787,219.420 97.579 C 219.211 97.370,217.996 97.200,216.720 97.200 C 215.444 97.200,214.400 97.043,214.400 96.851 C 214.400 96.659,212.645 96.455,210.500 96.397 C 205.144 96.253,205.238 96.262,205.426 95.958 C 205.518 95.808,203.077 95.686,200.000 95.686 C 196.923 95.686,194.482 95.808,194.574 95.958 M153.000 107.200 C 152.864 107.420,153.033 107.600,153.376 107.600 C 153.719 107.600,154.131 107.614,154.290 107.630 C 154.450 107.647,154.644 107.466,154.723 107.230 C 154.904 106.687,153.334 106.660,153.000 107.200 M245.277 107.230 C 245.356 107.466,245.550 107.647,245.710 107.630 C 245.870 107.614,246.281 107.600,246.624 107.600 C 246.967 107.600,247.136 107.420,247.000 107.200 C 246.666 106.660,245.096 106.687,245.277 107.230 M149.417 108.772 C 149.291 108.977,149.398 109.275,149.655 109.434 C 149.969 109.628,150.016 109.549,149.796 109.194 C 149.558 108.809,149.651 108.734,150.134 108.919 C 150.500 109.060,150.800 109.001,150.800 108.787 C 150.800 108.292,149.721 108.281,149.417 108.772 M249.200 108.787 C 249.200 109.001,249.500 109.060,249.866 108.919 C 250.349 108.734,250.442 108.809,250.204 109.194 C 249.984 109.549,250.031 109.628,250.345 109.434 C 250.602 109.275,250.709 108.977,250.583 108.772 C 250.279 108.281,249.200 108.292,249.200 108.787 M325.308 109.628 C 325.276 110.052,325.419 110.400,325.625 110.400 C 326.080 110.400,326.127 109.325,325.683 109.051 C 325.509 108.944,325.340 109.203,325.308 109.628 M40.909 116.800 C 40.909 117.790,40.987 118.195,41.082 117.700 C 41.178 117.205,41.178 116.395,41.082 115.900 C 40.987 115.405,40.909 115.810,40.909 116.800 M358.909 116.800 C 358.909 117.790,358.987 118.195,359.082 117.700 C 359.178 117.205,359.178 116.395,359.082 115.900 C 358.987 115.405,358.909 115.810,358.909 116.800 " stroke="none" fill="#9c1c94" fill-rule="evenodd"></path><path id="path7" d="M154.400 243.151 C 154.400 244.536,154.429 244.605,154.976 244.494 C 155.285 244.431,155.500 244.760,155.500 245.294 L 155.500 246.200 131.250 246.000 C 112.223 245.843,107.000 245.692,107.000 245.300 C 107.000 244.891,106.469 244.553,106.372 244.900 C 106.254 245.318,107.282 247.129,107.955 247.689 C 108.437 248.090,108.685 248.636,108.547 248.994 C 108.417 249.333,108.509 249.849,108.752 250.142 C 108.994 250.434,109.075 250.792,108.930 250.937 C 108.785 251.082,108.887 251.200,109.157 251.200 C 109.427 251.200,109.536 251.380,109.400 251.600 C 109.264 251.820,109.353 252.000,109.597 252.000 C 109.842 252.000,110.230 252.540,110.460 253.200 C 110.690 253.859,111.040 254.299,111.239 254.176 C 111.438 254.053,111.600 254.313,111.600 254.754 C 111.600 255.194,112.000 255.835,112.489 256.177 C 112.978 256.520,113.253 256.800,113.101 256.800 C 112.949 256.800,113.266 257.451,113.806 258.247 C 114.347 259.043,114.715 259.815,114.624 259.961 C 114.534 260.107,114.986 260.646,115.630 261.158 C 116.273 261.671,116.802 262.385,116.804 262.745 C 116.806 263.105,117.346 263.825,118.004 264.345 C 118.662 264.865,119.200 265.587,119.200 265.950 C 119.200 266.313,119.605 266.788,120.100 267.005 C 120.595 267.222,120.990 267.580,120.978 267.800 C 120.947 268.356,121.736 269.155,122.100 268.934 C 122.265 268.835,122.400 269.044,122.400 269.400 C 122.400 269.756,122.535 269.968,122.700 269.871 C 122.865 269.775,123.540 270.386,124.200 271.229 C 124.860 272.073,125.548 272.771,125.729 272.781 C 126.153 272.805,127.194 273.845,127.221 274.271 C 127.232 274.452,127.971 275.185,128.864 275.900 C 129.756 276.615,130.371 277.200,130.229 277.200 C 130.088 277.200,130.383 277.623,130.886 278.141 C 131.389 278.658,132.055 278.988,132.366 278.873 C 132.724 278.740,132.825 278.835,132.642 279.132 C 132.483 279.389,132.543 279.600,132.776 279.600 C 133.009 279.600,133.200 279.870,133.200 280.200 C 133.200 280.530,133.391 280.800,133.624 280.800 C 133.857 280.800,133.928 280.607,133.782 280.370 C 133.636 280.134,133.897 280.179,134.363 280.469 C 134.828 280.760,135.317 281.337,135.448 281.752 C 135.640 282.356,135.757 282.396,136.038 281.953 C 136.298 281.541,136.389 281.630,136.394 282.300 C 136.397 282.795,136.591 283.200,136.824 283.200 C 137.057 283.200,137.136 283.020,137.000 282.800 C 136.612 282.172,136.994 282.328,138.015 283.213 C 138.531 283.661,139.207 283.930,139.516 283.811 C 140.252 283.528,259.748 283.528,260.484 283.811 C 260.793 283.930,261.469 283.661,261.985 283.213 C 263.006 282.328,263.388 282.172,263.000 282.800 C 262.864 283.020,262.943 283.200,263.176 283.200 C 263.409 283.200,263.603 282.795,263.606 282.300 C 263.611 281.630,263.702 281.541,263.962 281.953 C 264.243 282.396,264.360 282.356,264.552 281.752 C 264.683 281.337,265.172 280.760,265.637 280.469 C 266.103 280.179,266.364 280.134,266.218 280.370 C 266.072 280.607,266.143 280.800,266.376 280.800 C 266.609 280.800,266.800 280.530,266.800 280.200 C 266.800 279.870,266.991 279.600,267.224 279.600 C 267.457 279.600,267.517 279.389,267.358 279.132 C 267.175 278.835,267.276 278.740,267.634 278.873 C 267.945 278.988,268.611 278.658,269.114 278.141 C 269.617 277.623,269.912 277.200,269.771 277.200 C 269.629 277.200,270.244 276.615,271.136 275.900 C 272.029 275.185,272.768 274.452,272.779 274.271 C 272.806 273.845,273.847 272.805,274.271 272.781 C 274.452 272.771,275.140 272.073,275.800 271.229 C 276.460 270.386,277.135 269.775,277.300 269.871 C 277.465 269.968,277.600 269.756,277.600 269.400 C 277.600 269.044,277.735 268.835,277.900 268.934 C 278.249 269.146,279.034 268.384,279.068 267.800 C 279.080 267.580,279.475 267.222,279.945 267.005 C 280.415 266.788,280.800 266.313,280.800 265.950 C 280.800 265.587,281.338 264.865,281.996 264.345 C 282.654 263.825,283.194 263.105,283.196 262.745 C 283.198 262.385,283.727 261.671,284.370 261.158 C 285.014 260.646,285.466 260.107,285.376 259.961 C 285.285 259.815,285.653 259.043,286.194 258.247 C 286.734 257.451,287.051 256.800,286.899 256.800 C 286.747 256.800,287.022 256.520,287.511 256.177 C 288.000 255.835,288.400 255.194,288.400 254.754 C 288.400 254.313,288.562 254.053,288.761 254.176 C 288.960 254.299,289.310 253.859,289.540 253.200 C 289.770 252.540,290.158 252.000,290.403 252.000 C 290.647 252.000,290.736 251.820,290.600 251.600 C 290.464 251.380,290.573 251.200,290.843 251.200 C 291.113 251.200,291.215 251.082,291.070 250.937 C 290.925 250.792,291.006 250.434,291.248 250.142 C 291.491 249.849,291.583 249.333,291.453 248.994 C 291.315 248.636,291.563 248.090,292.045 247.689 C 292.718 247.129,293.746 245.318,293.628 244.900 C 293.531 244.553,293.000 244.891,293.000 245.300 C 293.000 245.692,287.777 245.843,268.750 246.000 L 244.500 246.200 244.500 245.294 C 244.500 244.760,244.715 244.431,245.024 244.494 C 245.571 244.605,245.600 244.536,245.600 243.151 C 245.600 242.442,245.501 242.384,245.000 242.800 C 244.670 243.074,244.400 243.546,244.400 243.849 C 244.400 244.152,244.152 244.400,243.849 244.400 C 243.546 244.400,243.074 244.670,242.800 245.000 C 242.383 245.502,242.444 245.600,243.175 245.600 C 243.732 245.600,243.944 245.433,243.762 245.138 C 243.574 244.835,243.653 244.786,243.993 244.995 C 244.610 245.377,242.892 246.890,242.145 246.623 C 241.862 246.521,241.762 246.788,241.880 247.330 C 242.035 248.043,241.989 248.091,241.627 247.600 C 241.235 247.068,241.129 247.069,240.692 247.615 C 240.422 247.953,239.864 248.160,239.453 248.076 C 239.008 247.985,238.810 248.092,238.963 248.340 C 239.105 248.569,238.541 249.219,237.710 249.783 C 236.880 250.348,236.243 250.943,236.296 251.105 C 236.348 251.267,236.129 251.402,235.809 251.405 C 235.489 251.407,234.938 251.767,234.584 252.205 C 234.230 252.642,234.055 252.775,234.194 252.500 C 234.591 251.716,233.801 251.915,233.000 252.800 C 232.602 253.240,231.914 253.600,231.471 253.600 C 231.029 253.600,230.778 253.711,230.914 253.848 C 231.269 254.203,230.174 255.200,229.429 255.200 C 229.083 255.200,228.800 255.380,228.800 255.600 C 228.800 255.820,228.249 256.000,227.576 256.000 C 226.863 256.000,226.456 256.167,226.600 256.400 C 226.736 256.620,226.582 256.800,226.257 256.800 C 225.932 256.800,225.576 257.025,225.465 257.300 C 225.308 257.690,225.256 257.686,225.232 257.284 C 225.210 256.938,224.927 257.023,224.367 257.544 C 223.910 257.971,222.965 258.412,222.267 258.524 C 220.306 258.840,219.647 259.020,219.345 259.322 C 219.192 259.475,218.486 259.600,217.776 259.600 C 216.958 259.600,216.395 259.836,216.238 260.245 C 216.065 260.697,215.641 260.838,214.817 260.717 C 214.171 260.622,213.716 260.663,213.805 260.808 C 213.895 260.953,213.390 261.097,212.684 261.127 C 211.978 261.158,210.860 261.336,210.200 261.524 C 208.724 261.944,205.507 262.137,200.000 262.137 C 194.493 262.137,191.276 261.944,189.800 261.524 C 189.140 261.336,188.022 261.158,187.316 261.127 C 186.610 261.097,186.105 260.953,186.195 260.808 C 186.284 260.663,185.829 260.622,185.183 260.717 C 184.359 260.838,183.935 260.697,183.762 260.245 C 183.605 259.836,183.042 259.600,182.224 259.600 C 181.514 259.600,180.808 259.475,180.655 259.322 C 180.353 259.020,179.694 258.840,177.733 258.524 C 177.035 258.412,176.104 257.983,175.662 257.572 C 175.091 257.040,174.802 256.965,174.661 257.312 C 174.509 257.688,174.456 257.685,174.432 257.300 C 174.414 257.025,174.119 256.800,173.776 256.800 C 173.433 256.800,173.264 256.620,173.400 256.400 C 173.544 256.167,173.137 256.000,172.424 256.000 C 171.751 256.000,171.200 255.820,171.200 255.600 C 171.200 255.380,170.917 255.200,170.571 255.200 C 169.826 255.200,168.731 254.203,169.086 253.848 C 169.222 253.711,168.971 253.600,168.529 253.600 C 168.086 253.600,167.398 253.240,167.000 252.800 C 166.199 251.915,165.409 251.716,165.806 252.500 C 165.945 252.775,165.770 252.642,165.416 252.205 C 165.062 251.767,164.554 251.407,164.286 251.405 C 164.019 251.402,163.731 251.220,163.646 251.000 C 163.561 250.780,162.881 250.185,162.135 249.679 C 161.390 249.172,160.895 248.569,161.037 248.340 C 161.190 248.092,160.992 247.985,160.547 248.076 C 160.136 248.160,159.578 247.953,159.308 247.615 C 158.871 247.069,158.765 247.068,158.373 247.600 C 158.011 248.091,157.965 248.043,158.120 247.330 C 158.238 246.788,158.138 246.521,157.855 246.623 C 157.108 246.890,155.390 245.377,156.007 244.995 C 156.347 244.786,156.426 244.835,156.238 245.138 C 156.056 245.433,156.268 245.600,156.825 245.600 C 157.556 245.600,157.617 245.502,157.200 245.000 C 156.926 244.670,156.454 244.400,156.151 244.400 C 155.848 244.400,155.600 244.152,155.600 243.849 C 155.600 243.546,155.330 243.074,155.000 242.800 C 154.499 242.384,154.400 242.442,154.400 243.151 M39.646 244.900 L 39.600 246.000 19.800 246.000 L 0.000 246.000 -0.000 264.900 L -0.000 283.800 19.700 283.688 C 32.036 283.617,39.450 283.429,39.534 283.185 C 39.608 282.971,39.842 282.902,40.054 283.033 C 40.286 283.177,40.233 283.525,39.919 283.912 C 39.571 284.342,39.558 284.459,39.880 284.266 C 40.206 284.070,40.441 284.462,40.613 285.489 C 41.009 287.856,41.134 287.948,41.168 285.900 C 41.186 284.855,41.050 284.000,40.867 284.000 C 40.683 284.000,40.533 283.730,40.533 283.400 C 40.533 283.070,40.638 282.800,40.767 282.800 C 41.155 282.801,40.807 247.061,40.410 246.200 C 40.207 245.760,39.963 245.040,39.867 244.600 C 39.740 244.019,39.680 244.101,39.646 244.900 M360.060 244.820 C 360.027 245.381,359.832 246.011,359.626 246.220 C 359.224 246.629,358.835 282.801,359.233 282.800 C 359.362 282.800,359.467 283.070,359.467 283.400 C 359.467 283.730,359.317 284.000,359.133 284.000 C 358.950 284.000,358.814 284.855,358.832 285.900 C 358.866 287.948,358.991 287.856,359.387 285.489 C 359.559 284.462,359.794 284.070,360.120 284.266 C 360.442 284.459,360.429 284.342,360.081 283.912 C 359.767 283.525,359.714 283.177,359.946 283.033 C 360.158 282.902,360.392 282.971,360.466 283.185 C 360.550 283.429,367.964 283.617,380.300 283.688 L 400.000 283.800 400.000 264.900 L 400.000 246.000 380.227 246.000 L 360.453 246.000 360.287 244.900 C 360.122 243.815,360.119 243.813,360.060 244.820 M118.100 359.076 C 118.485 359.176,119.115 359.176,119.500 359.076 C 119.885 358.975,119.570 358.893,118.800 358.893 C 118.030 358.893,117.715 358.975,118.100 359.076 M280.500 359.076 C 280.885 359.176,281.515 359.176,281.900 359.076 C 282.285 358.975,281.970 358.893,281.200 358.893 C 280.430 358.893,280.115 358.975,280.500 359.076 " stroke="none" fill="#c44c4c" fill-rule="evenodd"></path></g></svg>